<?xml version="1.0" standalone="no"?>
<!DOCTYPE svg PUBLIC "-//W3C//DTD SVG 1.1//EN" "http://www.w3.org/Graphics/SVG/1.1/DTD/svg11.dtd" >
<svg>
<metadata>
Created by FontForge 20120731 at Fri Aug 30 02:14:13 2019
 By www
Design and data by The Monotype Corporation. (c) 1993-1999. Microsoft Corporation. All rights reserved.
</metadata>
<defs>
<font id="EngraversMT" horiz-adv-x="2048" >
  <font-face 
    font-family="Engravers MT"
    font-weight="500"
    font-stretch="expanded"
    units-per-em="2048"
    panose-1="2 9 7 7 8 5 5 2 3 4"
    ascent="1638"
    descent="-410"
    x-height="1397"
    cap-height="1397"
    bbox="-377 -457 3306 1917"
    underline-thickness="102"
    underline-position="-154"
    unicode-range="U+0020-F002"
  />
<missing-glyph horiz-adv-x="1024" 
d="M82 1365h860v-1365h-860v1365zM123 1324v-1283h778v1283h-778z" />
    <glyph glyph-name=".notdef" horiz-adv-x="1024" 
d="M82 1365h860v-1365h-860v1365zM123 1324v-1283h778v1283h-778z" />
    <glyph glyph-name=".null" horiz-adv-x="0" 
 />
    <glyph glyph-name="nonmarkingreturn" horiz-adv-x="662" 
 />
    <glyph glyph-name="space" unicode=" " horiz-adv-x="662" 
 />
    <glyph glyph-name="exclam" unicode="!" horiz-adv-x="831" 
d="M434 590h-35q-3 64 -11.5 113.5t-26 106t-46.5 134.5q-40 113 -52.5 167t-12.5 106q0 89 46.5 148.5t117.5 59.5q76 0 123 -59t47 -154q0 -91 -70 -276q-47 -126 -61.5 -189.5t-18.5 -156.5zM414 305q71 0 119.5 -47.5t48.5 -118.5q0 -69 -48.5 -117.5t-117.5 -48.5
q-66 0 -116 49t-50 117q0 45 22.5 83t60 60.5t81.5 22.5z" />
    <glyph glyph-name="quotedbl" unicode="&#x22;" horiz-adv-x="1217" 
d="M659 858l-20 33q170 90 170 170q0 34 -64 67q-57 30 -79.5 60t-22.5 78q0 64 45.5 109.5t108.5 45.5q70 0 113.5 -56t43.5 -146q0 -148 -112 -254q-38 -35 -74.5 -56.5t-108.5 -50.5zM264 858l-20 33q170 91 170 170q0 19 -14 33.5t-50 33.5q-55 28 -78.5 59.5
t-23.5 78.5q0 65 45 110t108 45q71 0 114.5 -56t43.5 -146q0 -71 -28.5 -136t-84.5 -118q-65 -60 -182 -107z" />
    <glyph glyph-name="numbersign" unicode="#" horiz-adv-x="1024" 
d="M115 -28l93 455h-171v82h187l69 343h-256v80h275l91 455h83l-91 -455h337l97 455h83l-95 -455h170v-80h-185l-70 -343h255v-82h-272l-93 -455h-81l91 455h-339l-95 -455h-83zM308 509h339l72 343h-341z" />
    <glyph glyph-name="dollar" unicode="$" horiz-adv-x="1323" 
d="M524 25v608q-209 70 -305 162.5t-96 224.5q0 52 17 103t51.5 97.5t84.5 86.5q51 38 109 63t139 43v72h35v-68q47 6 119 6q41 0 65 -2v64h35v-66q83 -12 132.5 -25t96.5 -36t85 -53q120 -94 120 -211q0 -61 -38.5 -101.5t-98.5 -40.5q-58 0 -96.5 36t-38.5 91
q0 91 104 129q43 15 43 33q0 27 -57 66q-95 60 -252 77v-534q142 -48 205 -78q100 -46 165.5 -101.5t96.5 -122t31 -149.5q0 -99 -48 -184t-138 -145q-63 -40 -130 -60.5t-182 -32.5v-180h-35v176h-26q-18 0 -158 4v-180h-35v187q-129 14 -202.5 37.5t-133.5 68.5
q-102 81 -102 195q0 69 43 112t113 43q63 0 103 -39t40 -100q0 -42 -21 -72t-71 -57q-49 -25 -49 -47q0 -28 65 -53q91 -39 215 -47zM743 862v527h-36q-65 0 -148 -9v-460q64 -21 184 -58zM524 932v440q-262 -53 -262 -223q0 -76 61 -127t201 -90zM743 561l-53 17
q-24 9 -54.5 18.5t-76.5 24.5v-603q43 -4 123 -4h61v547zM778 549v-533q96 7 168.5 39.5t111 86t38.5 122.5q0 99 -73 165t-245 120z" />
    <glyph glyph-name="percent" unicode="%" horiz-adv-x="2410" 
d="M584 1393q-98 0 -146 -80q-45 -75 -45 -279q0 -167 47.5 -249.5t143.5 -82.5q98 0 143 81t45 253q0 187 -44.5 272t-143.5 85zM575 1427q244 0 357 -116q49 -49 75.5 -115.5t26.5 -142.5t-27 -145.5t-77 -119.5q-57 -57 -144 -86.5t-206 -29.5q-138 0 -239.5 46
t-156.5 131.5t-55 199.5q0 115 54 200.5t155 131.5t237 46zM1855 702q-99 0 -143.5 -78.5t-44.5 -254.5q0 -184 45 -268.5t143 -84.5q100 0 144.5 80.5t44.5 261.5q0 179 -45.5 261.5t-143.5 82.5zM1855 739q226 0 349 -118q104 -106 104 -265q0 -116 -55.5 -200t-159 -130
t-242.5 -46q-136 0 -237.5 47t-156 132.5t-54.5 198.5q0 86 31.5 158t90.5 122t143 75.5t187 25.5zM1880 1432l-1257 -1452h-64l1253 1452h68z" />
    <glyph glyph-name="ampersand" unicode="&#x26;" 
d="M592 741l90 31q-57 142 -57 256q0 111 44.5 202t121.5 143t172 52q118 0 193 -79t75 -201q0 -67 -25 -119.5t-78 -94.5t-141 -79l47 -57q104 -135 199 -244q47 -57 151 -172q95 110 138 189.5t43 148.5q0 79 -58.5 125.5t-160.5 46.5h-52v37h678v-37q-60 -3 -104.5 -16
t-87.5 -42q-52 -33 -89.5 -78.5t-91.5 -136.5q-48 -82 -90 -143t-96 -125q99 -110 176.5 -158.5t151.5 -48.5q50 0 96.5 29.5t77.5 79.5q29 45 43 99.5t20 150.5h35q-9 -127 -31 -201.5t-73 -142.5q-66 -88 -165 -136.5t-210 -48.5q-101 0 -181.5 36t-195.5 128
q-141 -83 -275 -122.5t-280 -39.5q-127 0 -241.5 28t-182.5 77q-123 83 -123 217q0 117 99 219q46 48 101.5 83.5t131.5 68t205 75.5zM1094 143l36 21q-107 102 -249 285q-68 91 -107.5 153t-75.5 137q-93 -31 -143.5 -56.5t-93.5 -61.5q-84 -73 -84 -193q0 -49 14 -101.5
t39 -96t62 -80.5q104 -105 276 -105q77 0 146 20.5t180 77.5zM924 938l39 -55q85 35 122 78t37 104q0 49 -21 118.5t-52 114.5q-56 84 -129 84q-58 0 -100 -43t-42 -102q0 -51 30 -112.5t116 -186.5z" />
    <glyph glyph-name="quotesingle" unicode="'" horiz-adv-x="831" 
d="M272 858l-20 31q172 87 172 172q0 20 -15 35.5t-49 29.5q-54 29 -77 61t-23 83q0 62 43.5 105.5t106.5 43.5q46 0 83 -25t57.5 -68t20.5 -101q0 -153 -120 -264q-36 -35 -71 -55.5t-108 -47.5z" />
    <glyph glyph-name="parenleft" unicode="(" horiz-adv-x="725" 
d="M664 1485l18 -29q-55 -69 -82.5 -115.5t-56.5 -119.5q-44 -112 -65 -245t-21 -284q0 -295 82 -512q25 -70 55 -119.5t88 -119.5l-20 -31q-82 51 -136 90t-95 77.5t-93 98.5q-201 238 -201 520q0 287 195 518q61 75 135.5 136t196.5 135z" />
    <glyph glyph-name="parenright" unicode=")" horiz-adv-x="725" 
d="M61 1456l21 29q109 -63 177.5 -117.5t137.5 -134.5q207 -246 207 -535q0 -95 -22 -184t-65 -173.5t-105 -156.5q-69 -81 -142.5 -141t-189.5 -129l-21 27q59 74 89 124t55 123q82 215 82 508q0 307 -90 537q-22 62 -51 110.5t-83 112.5z" />
    <glyph glyph-name="asterisk" unicode="*" horiz-adv-x="1323" 
d="M741 737v13q-9 88 -25 132.5t-46 75.5q-64 -73 -70 -176q-9 -164 -111 -164q-48 0 -86 35.5t-38 79.5q0 40 24.5 67.5t87.5 55.5q68 33 101 59t65 70q-67 21 -115 21q-25 0 -88 -13q-45 -8 -69 -8q-119 0 -119 102q0 52 30.5 87.5t75.5 35.5q34 0 61.5 -17.5t63.5 -57.5
q29 -33 55 -55.5t54 -37.5t59 -24q-2 49 -6 75.5t-16 54.5t-35 69q-25 41 -32 60t-7 44q0 48 30.5 76t80.5 28t82 -29t32 -75q0 -39 -39 -107q-33 -61 -44 -99t-9 -97q54 17 88 40t82 77q41 43 66 58t57 15q42 0 73 -38t31 -87q0 -45 -31.5 -73.5t-84.5 -28.5q-15 0 -80 10
q-63 13 -92 13q-47 0 -99 -23q39 -49 71 -73.5t87 -47.5q6 -3 12 -5.5t9 -4.5q96 -52 96 -115q0 -29 -17.5 -57t-45.5 -45t-58 -17q-42 0 -72.5 33t-38.5 88z" />
    <glyph glyph-name="plus" unicode="+" horiz-adv-x="1155" 
d="M535 141v499h-498v82h498v497h80v-497h500v-82h-500v-499h-80z" />
    <glyph glyph-name="comma" unicode="," horiz-adv-x="831" 
d="M274 -272l-18 30q170 89 170 172q0 39 -61 66q-56 29 -79.5 60.5t-23.5 82.5q0 64 44 107t108 43q71 0 115 -54.5t44 -140.5q0 -152 -120 -264q-40 -37 -77.5 -58.5t-101.5 -43.5z" />
    <glyph glyph-name="hyphen" unicode="-" horiz-adv-x="1087" 
d="M213 600h686v-254h-686v254z" />
    <glyph glyph-name="period" unicode="." horiz-adv-x="831" 
d="M414 303q70 0 119 -47t49 -117q0 -68 -49 -116t-115 -48t-115 49t-49 115q0 65 47.5 114.5t112.5 49.5z" />
    <glyph glyph-name="slash" unicode="/" horiz-adv-x="1194" 
d="M911 1667h234l-862 -1706h-234z" />
    <glyph glyph-name="zero" unicode="0" horiz-adv-x="1323" 
d="M410 827v-260q0 -286 64 -422.5t198 -136.5q260 0 260 516v267q0 116 -7.5 214.5t-19.5 145.5q-51 235 -235 235q-92 0 -149 -58t-84 -179t-27 -322zM684 -25q-165 0 -304.5 95.5t-219.5 262t-80 365.5q0 198 79 365.5t214 263.5t299 96q64 0 131.5 -18.5t131 -56.5
t116.5 -91q101 -99 156 -243t55 -316q0 -105 -21 -200.5t-62.5 -177.5t-103 -150t-135.5 -113q-132 -82 -256 -82z" />
    <glyph glyph-name="one" unicode="1" horiz-adv-x="1323" 
d="M135 37h144q138 0 201 65t63 211v623q0 100 -11.5 145.5t-46.5 77.5q-69 66 -204 66h-107v35q121 6 218.5 21.5t177.5 43t173 76.5h68v-1122q0 -242 260 -242h133v-37h-1069v37z" />
    <glyph glyph-name="two" unicode="2" horiz-adv-x="1323" 
d="M1245 539l-100 -537h-1059q6 98 107 217q90 103 346 287q141 104 172 131q6 6 14 13.5t18 17.5q80 83 115 165t35 185q0 176 -86.5 270t-245.5 94q-120 0 -221 -49t-159 -133t-58 -184q0 -109 49 -109q20 0 23 29q4 24 14 49q27 62 68.5 90.5t103.5 28.5q51 0 91.5 -22
t62.5 -62.5t22 -89.5q0 -56 -28.5 -101.5t-77 -71.5t-109.5 -26q-113 0 -185.5 78t-72.5 199q0 73 28.5 143.5t82.5 124.5q146 149 450 149q126 0 233 -30.5t184 -87.5t118 -134t41 -167q0 -131 -91 -234q-38 -46 -88 -82q-96 -63 -288 -143q-269 -113 -377 -197
q-25 -18 -96 -82h653q91 0 138.5 16.5t74.5 59.5t47 129l14 66h37z" />
    <glyph glyph-name="three" unicode="3" horiz-adv-x="1323" 
d="M797 750v2v-4q157 -23 227 -54q85 -33 142.5 -80t86.5 -107.5t29 -129.5q0 -118 -81.5 -209t-231 -141t-338.5 -50q-108 0 -212.5 22t-166.5 56q-67 40 -107.5 103t-40.5 127q0 74 48 123t120 49q71 0 115.5 -44.5t44.5 -111.5q0 -42 -19.5 -73.5t-64.5 -61.5
q-43 -27 -43 -49q0 -45 87.5 -74t217.5 -29q183 0 267 82q90 94 79 273q-12 204 -90 278q-81 78 -231 78q-37 0 -135 -8q-27 -4 -54 -4q-57 0 -57 35q0 34 64 34q12 0 67 -6q71 -8 117 -8q89 0 143 28.5t78.5 90.5t24.5 170q0 60 -10 109.5t-28.5 89.5t-45.5 65
q-68 68 -195 68q-76 0 -142 -17t-106.5 -44.5t-40.5 -57.5q0 -16 10 -26.5t37 -26.5q47 -23 68 -54.5t21 -79.5q0 -66 -43.5 -108.5t-108.5 -42.5q-69 0 -115.5 47.5t-46.5 116.5q0 96 66.5 172t187 117.5t273.5 41.5q158 0 276 -43.5t183 -124t65 -188.5
q0 -68 -28.5 -125.5t-84.5 -99.5q-64 -48 -180 -76q-29 -7 -98 -20z" />
    <glyph glyph-name="four" unicode="4" horiz-adv-x="1323" 
d="M731 1169l-600 -669h600v669zM913 1425h78v-923h303v-158h-303v-76q0 -109 64 -169t178 -60h47v-37h-874v37h43q97 0 160 27t92.5 83.5t29.5 147.5v47h-647v158z" />
    <glyph glyph-name="five" unicode="5" horiz-adv-x="1323" 
d="M1223 1425l4 -24q-51 -75 -99 -117.5t-127 -83.5q-91 -46 -203.5 -70t-240.5 -24t-276 22l-60 -405q141 81 229.5 109t208.5 28q108 0 199 -18.5t164.5 -54.5t128.5 -91q57 -56 88 -128.5t31 -147.5q0 -158 -115 -268q-180 -177 -534 -177q-106 0 -209.5 22t-165.5 56
q-67 39 -103.5 95t-36.5 120q0 74 49 122t121 48q48 0 85 -20.5t59 -56.5t22 -80q0 -88 -92 -138q-39 -22 -39 -41q0 -33 83.5 -60.5t185.5 -27.5q187 0 274.5 100.5t87.5 315.5q0 125 -38.5 212t-115.5 133t-180 46q-68 0 -128 -15t-125.5 -48t-139.5 -84h-35l107 756
q72 -24 127 -33q152 -27 340 -27q92 0 172 5.5t154 18t143 31.5z" />
    <glyph glyph-name="six" unicode="6" horiz-adv-x="1323" 
d="M434 489v-127q0 -115 31 -193.5t92.5 -118.5t147.5 -40q134 0 192 101q22 32 33 84q16 72 16 266q0 120 -17 188t-59 111q-51 53 -145 53q-86 0 -152 -41t-102.5 -114.5t-36.5 -168.5zM434 883v-209h4q121 190 355 190q132 0 241.5 -56t173.5 -154t64 -216
q0 -129 -71.5 -236t-197 -167t-278.5 -60q-125 0 -229.5 41.5t-186.5 120.5q-65 65 -111.5 152.5t-71 190.5t-24.5 214q0 161 51.5 298t153.5 237q93 93 218 144.5t257 51.5q112 0 204.5 -41t147 -112.5t54.5 -155.5q0 -68 -45 -115t-113 -47q-70 0 -116 43t-46 109
q0 48 23.5 81t75.5 60q47 26 47 47q0 24 -31.5 46t-83 35.5t-111.5 13.5q-179 0 -266.5 -124.5t-87.5 -381.5z" />
    <glyph glyph-name="seven" unicode="7" horiz-adv-x="1323" 
d="M1284 1399v-37l-29 -45q-94 -151 -154 -260.5t-103.5 -215t-84.5 -235.5q-61 -200 -104 -399q-21 -108 -31 -207h-327q23 121 59 205q50 116 96 194q153 263 387 578l119 160h-618q-103 0 -158.5 -25.5t-84 -89t-44.5 -191.5h-35l68 568h1044z" />
    <glyph glyph-name="eight" unicode="8" horiz-adv-x="1323" 
d="M844 803q73 54 104 121.5t31 162.5q0 150 -81 226t-239 76q-107 0 -187 -30t-123.5 -83.5t-43.5 -126.5q0 -43 17 -80.5t47 -64.5q17 -16 57 -41q106 -56 301 -121q38 -12 117 -39zM487 641q-70 -42 -115 -88.5t-65 -103.5t-20 -132q0 -309 389 -309q114 0 204.5 34.5
t141.5 95t51 134.5q0 83 -59 136q-26 22 -58 43q-82 43 -196 90q-36 15 -68.5 27t-66.5 24q-21 8 -47.5 17.5t-44.5 16t-46 15.5zM444 659q-164 70 -235.5 156t-71.5 213q0 121 65.5 211t190 138t291.5 48q272 0 401 -129q42 -39 65.5 -94t23.5 -110q0 -66 -27.5 -119.5
t-89 -100t-162.5 -90.5q164 -61 248 -129q137 -114 137 -268q0 -68 -27 -131.5t-77 -112.5q-173 -166 -523 -166q-142 0 -266 29t-201 82q-127 87 -127 223q0 79 38 140t123 112t224 98z" />
    <glyph glyph-name="nine" unicode="9" horiz-adv-x="1323" 
d="M641 1391q-139 0 -199 -99q-23 -42 -32 -86q-6 -24 -9.5 -63.5t-5.5 -102.5t-2 -110q0 -100 12.5 -161t40.5 -103q52 -80 170 -80q119 0 193 76q51 49 73.5 126.5t22.5 196.5q0 140 -28.5 229.5t-87 133t-148.5 43.5zM903 500v225h-4q-62 -97 -146 -141.5t-204 -44.5
q-98 0 -187 33t-155.5 92t-103.5 136t-37 165q0 130 71 235t198 165t281 60q179 0 321.5 -91t221 -254t78.5 -371q0 -330 -201 -537q-95 -95 -218.5 -146t-256.5 -51q-206 0 -325 117q-86 84 -86 184q0 74 45.5 122t113.5 48q71 0 117.5 -43t46.5 -112q0 -47 -22.5 -79.5
t-73.5 -57.5q-49 -25 -49 -50q0 -36 68.5 -64t156.5 -28q172 0 261 124t89 364z" />
    <glyph glyph-name="colon" unicode=":" horiz-adv-x="831" 
d="M414 1014q71 0 118.5 -47.5t47.5 -116.5q0 -66 -48 -114t-116 -48q-66 0 -114 48t-48 114q0 65 47.5 114.5t112.5 49.5zM414 303q69 0 117.5 -47.5t48.5 -116.5q0 -68 -49 -116t-115 -48t-115 49t-49 115q0 65 48.5 114.5t113.5 49.5z" />
    <glyph glyph-name="semicolon" unicode=";" horiz-adv-x="831" 
d="M274 -279l-20 33q172 88 172 172q0 20 -14 35t-50 31q-55 28 -77.5 60t-22.5 83q0 63 43.5 106.5t106.5 43.5q70 0 115.5 -55.5t45.5 -139.5q0 -151 -120 -266q-37 -32 -73 -53t-106 -50zM414 1014q71 0 118.5 -47.5t47.5 -116.5q0 -66 -48 -114t-116 -48q-66 0 -114 48
t-48 114q0 65 47.5 114.5t112.5 49.5z" />
    <glyph glyph-name="less" unicode="&#x3c;" horiz-adv-x="1155" 
d="M37 706l1076 466v-87l-926 -402l926 -406v-90l-1076 470v49z" />
    <glyph glyph-name="equal" unicode="=" horiz-adv-x="1155" 
d="M37 883h1079v-82h-1079v82zM37 557h1079v-82h-1079v82z" />
    <glyph glyph-name="greater" unicode="&#x3e;" horiz-adv-x="1155" 
d="M1113 653l-1076 -466v86l927 402l-927 406v91l1076 -470v-49z" />
    <glyph glyph-name="question" unicode="?" horiz-adv-x="1323" 
d="M752 709l14 22q44 60 68 109.5t34.5 105.5t10.5 131q0 153 -58 232.5t-172 79.5q-77 0 -150 -28.5t-130 -78.5q-31 -29 -31 -57q0 -18 14 -26t49 -13q40 -5 68 -17q41 -18 62.5 -53.5t21.5 -79.5q0 -68 -48 -113.5t-118 -45.5q-72 0 -120 55t-48 137q0 83 47 159.5
t131 127.5q117 69 281 69q117 0 214 -26.5t167.5 -74t108.5 -114t38 -143.5q0 -106 -68 -184t-223 -146q-80 -34 -119.5 -62t-56.5 -62t-22 -93l-39 -2q9 67 23 104.5t51 86.5zM692 305q71 0 119.5 -47.5t48.5 -118.5q0 -68 -49 -116t-115 -48q-67 0 -116.5 48.5
t-49.5 115.5q0 44 22 82.5t59 61t81 22.5z" />
    <glyph glyph-name="at" unicode="@" horiz-adv-x="1706" 
d="M1049 893l235 8l-177 -605q-29 -100 -29 -149q0 -32 22.5 -54.5t56.5 -22.5q65 0 170.5 76t175 218.5t69.5 303.5q0 266 -171.5 437t-446.5 171q-237 0 -431 -111.5t-307.5 -323.5t-113.5 -455q0 -333 212.5 -545.5t541.5 -212.5q271 0 485.5 145.5t304.5 385.5h59
q-114 -283 -336 -434t-515 -151q-371 0 -612 239.5t-241 606.5q0 253 120 469t336.5 332t475.5 116q214 0 374 -85.5t239.5 -239.5t79.5 -327q0 -197 -85.5 -362t-214.5 -244t-278 -79q-97 0 -146.5 47.5t-49.5 124.5q0 48 23 132q-79 -132 -123 -182q-60 -68 -120 -101
q-40 -21 -90 -21q-68 0 -114.5 54.5t-46.5 162.5q0 136 53 274t139.5 239.5t190.5 162.5q59 35 114 35t90.5 -34t47.5 -117zM906 858q-26 0 -55 -21.5t-79 -109t-96.5 -227.5t-46.5 -233q0 -45 18 -68t39 -23q28 0 76 47q84 81 147 232.5t63 273.5q0 68 -21.5 98.5
t-44.5 30.5z" />
    <glyph glyph-name="A" unicode="A" horiz-adv-x="1792" 
d="M768 1098l-274 -623h555zM874 1425h37l562 -1222q27 -57 60.5 -94t75.5 -53.5t99 -16.5h37v-39h-811v39h106q79 0 115.5 21.5t36.5 66.5q0 28 -14.5 68t-63.5 145q-3 6 -9 20t-13 27l-23 51h-592l-45 -104q-22 -53 -22 -107q0 -46 25.5 -91t66.5 -68q27 -16 48.5 -21.5
t61.5 -7.5v-39h-569v39q62 7 98.5 22t81.5 50q106 82 207 309z" />
    <glyph glyph-name="B" unicode="B" horiz-adv-x="1792" 
d="M653 1362v-612h303q373 0 373 325q0 146 -79.5 216.5t-245.5 70.5h-351zM653 711v-676h314q199 0 305 88.5t106 251.5q0 139 -86 221q-65 65 -159 90t-275 25h-205zM63 1397h1024q119 0 230 -23.5t174 -62.5q78 -46 121 -111.5t43 -140.5q0 -122 -135 -211
q-54 -36 -116 -60t-175 -55v-4q144 -27 237 -65q254 -112 254 -308q0 -108 -76.5 -188.5t-218.5 -124t-335 -43.5h-1027v39h41q129 0 191.5 62.5t62.5 191.5v813q0 130 -62.5 193t-191.5 63h-41v35z" />
    <glyph glyph-name="C" unicode="C" horiz-adv-x="1749" 
d="M1593 492h35q-24 -89 -53 -148t-80 -123q-203 -250 -543 -250q-214 0 -399 99.5t-294 268t-109 363.5q0 116 43 230.5t125.5 214t191.5 170.5q165 108 381 108q72 0 136.5 -12.5t122 -40t118.5 -72.5q68 -47 100 -47q71 0 178 148h35l29 -672h-33q-17 73 -32.5 119
t-41.5 96q-69 141 -163 242t-205 154t-228 53q-140 0 -228 -74.5t-130.5 -232t-42.5 -400.5q0 -140 15 -248t46.5 -182.5t79.5 -124.5q59 -60 143.5 -91.5t184.5 -31.5q93 0 178.5 24t160 71.5t136.5 117.5q50 58 81 116.5t62 154.5z" />
    <glyph glyph-name="D" unicode="D" horiz-adv-x="2028" 
d="M668 1360v-1321h270q115 0 195 13t140 42.5t105 77.5q166 169 166 520q0 115 -20.5 217.5t-59.5 180.5t-98 137q-49 48 -110.5 77.5t-142 42.5t-193.5 13h-252zM68 1397h927q226 0 394.5 -56.5t283.5 -173.5q104 -101 160.5 -228t56.5 -261q0 -147 -61 -272t-172.5 -216
t-264.5 -140.5t-331 -49.5h-993v39h51q129 0 191.5 62.5t62.5 191.5v813q0 130 -62 192t-192 62h-51v37z" />
    <glyph glyph-name="E" unicode="E" horiz-adv-x="1686" 
d="M68 1397h1486v-541h-30q-41 142 -73.5 212.5t-84.5 133.5q-63 75 -137 107q-123 51 -299 51h-275v-664h74q165 0 262 142q50 73 74 174q12 43 22 127h35v-916h-35q-12 74 -28.5 139.5t-37 106.5t-52.5 82q-90 111 -256 111h-58v-625h230q102 0 183.5 14.5t146.5 45
t122 79.5q98 83 152 207q31 71 65 192h37v-575h-1521l-2 37h38q254 0 254 256v813q0 130 -62 192t-192 62h-38v37z" />
    <glyph glyph-name="F" unicode="F" horiz-adv-x="1686" 
d="M662 1360v-606h88q139 0 217 91t112 294h35v-801h-37q-16 104 -39 165t-63 109q-85 105 -244 105h-69v-424q0 -129 62.5 -191.5t190.5 -62.5h89v-39h-926v39h35q129 0 191.5 62.5t62.5 191.5v813q0 130 -62 192t-192 62h-35v37h1528v-604h-33q-15 78 -33 143t-35 100
q-50 111 -121.5 182.5t-169 106.5t-221.5 35h-331z" />
    <glyph glyph-name="G" unicode="G" 
d="M1669 1389h37l10 -603h-33q-34 109 -63 173.5t-64 113.5q-98 143 -247.5 226t-307.5 83q-82 0 -163 -30t-131 -80q-83 -83 -120.5 -229t-37.5 -377q0 -69 6 -137t16 -120.5t25 -103t33 -82.5q31 -52 70.5 -91t93 -68t113.5 -42.5t126 -13.5q85 0 170 21.5t137 56.5
q99 68 99 182v72q0 254 -254 254h-121v37h956v-37h-32q-129 0 -191.5 -62.5t-62.5 -191.5v-328h-37q-45 42 -78.5 56t-83.5 14q-44 0 -81.5 -8.5t-104.5 -36.5q-109 -39 -173 -52.5t-157 -13.5q-176 0 -328.5 53t-265 150.5t-174.5 229.5t-62 284q0 92 24 181.5t69 166.5
t112 146q78 77 171.5 130t198 82t208.5 29t203.5 -26.5t218.5 -85.5q89 -45 125 -45q37 0 72.5 29t78.5 94z" />
    <glyph glyph-name="H" unicode="H" 
d="M66 39h45q129 0 191.5 62.5t62.5 191.5v134v202v296.5v216.5q-9 64 -25 101.5t-49 63.5q-60 53 -180 53h-48v37h881v-37h-31q-129 0 -191.5 -62.5t-62.5 -191.5v-375h752v375q0 130 -62 192t-192 62h-29v37h873v-37h-41q-128 0 -191 -62.5t-63 -191.5v-813
q0 -128 64 -191t190 -63h41v-39h-873v39h29q129 0 191.5 62.5t62.5 191.5v397h-752v-397q0 -128 64 -191t190 -63h31v-39h-878v39z" />
    <glyph glyph-name="I" unicode="I" horiz-adv-x="1087" 
d="M117 39h39q129 0 191.5 62.5t62.5 191.5v106v90v129v519q-8 66 -24.5 105t-49.5 65q-60 53 -180 53h-39v37h880v-37h-39q-129 0 -191 -62t-62 -192v-813q0 -129 62.5 -191.5t190.5 -62.5h39v-39h-880v39z" />
    <glyph glyph-name="J" unicode="J" horiz-adv-x="1450" 
d="M436 1397h963v-37h-41q-256 0 -256 -254v-678q0 -195 -115 -307q-77 -74 -189 -113t-241 -39q-121 0 -218 34.5t-161 98.5q-40 43 -64 93.5t-24 97.5q0 77 54.5 132.5t131.5 55.5t125 -49t48 -125q0 -121 -134 -168q-41 -14 -41 -30q0 -26 56 -60q70 -43 184 -43
q93 0 159 33t101 95.5t35 150.5v821q0 254 -256 254h-117v37z" />
    <glyph glyph-name="K" unicode="K" 
d="M111 1397h884v-35h-41q-126 0 -190 -63.5t-64 -192.5v-608l662 530q66 55 88.5 89.5t22.5 80.5q0 75 -64 119.5t-174 44.5h-33v35h817v-35h-20q-169 0 -481 -252l-275 -219l422 -647q70 -108 147.5 -156.5t180.5 -48.5h26v-39h-862v39h45q191 0 191 90q0 16 -8.5 34.5
t-34.5 59.5l-320 494l-330 -264v-160q0 -128 64 -191t190 -63h41v-39h-882v39h39q129 0 192.5 63t63.5 191v813q0 129 -63.5 192.5t-192.5 63.5h-41v35z" />
    <glyph glyph-name="L" unicode="L" horiz-adv-x="1686" 
d="M63 1397h953v-37h-101q-129 0 -191 -62t-62 -192v-1069h362q107 0 202 47.5t165 132.5q42 53 74 105t61 126t57 170h37v-618h-1557l-2 37h52q254 0 254 256v813q0 254 -254 254h-50v37z" />
    <glyph glyph-name="M" unicode="M" horiz-adv-x="2284" 
d="M49 1397h584l526 -1069l522 1069h551v-37h-51q-129 0 -191.5 -62.5t-62.5 -191.5v-813q0 -128 63 -191t191 -63h51v-39h-903v39h60q128 0 190.5 62.5t62.5 191.5v950h-4l-600 -1243h-34l-607 1239h-4v-901q0 -94 36 -159.5t106 -101t170 -38.5v-39h-656v39h14
q135 0 212 79t77 214v774q0 130 -62 192t-192 62h-49v37z" />
    <glyph glyph-name="N" unicode="N" horiz-adv-x="2005" 
d="M84 1397h561l971 -1006v602q0 110 -37.5 192.5t-108.5 125.5q-38 24 -76.5 34t-107.5 15v37h692v-37h-14q-151 0 -230 -96t-79 -279v-999h-33l-1206 1239v-830q0 -121 29 -193.5t94 -113.5q53 -32 129 -41q42 -7 120 -10v-37h-729v37q112 6 182.5 39.5t104 99.5t33.5 164
v790q0 73 -32.5 124t-94.5 78.5t-150 27.5h-18v37z" />
    <glyph glyph-name="O" unicode="O" horiz-adv-x="1962" 
d="M975 1425q196 0 358.5 -62.5t282.5 -182.5q101 -102 156 -227.5t55 -256.5q0 -197 -111.5 -363t-303 -263t-419.5 -97q-174 0 -327.5 55t-270.5 155.5t-182.5 234.5t-65.5 280q0 194 113 362t303 266.5t412 98.5zM1001 1389q-91 0 -171.5 -31.5t-135.5 -89.5
q-60 -63 -102.5 -149.5t-64 -193t-21.5 -229.5q0 -154 34 -280.5t98 -218t153 -139.5t198 -48q148 0 257.5 84.5t168 241.5t58.5 373q0 140 -32 262t-92 212.5t-145 143.5q-42 28 -97 45t-106 17z" />
    <glyph glyph-name="P" unicode="P" horiz-adv-x="1729" 
d="M645 1360v-696h279q207 0 306 85.5t99 264.5q0 209 -137 291q-49 29 -115 42t-164 13h-268zM49 1397h834q74 0 162 -5t158 -12.5t116 -17.5q165 -35 252.5 -125.5t87.5 -224.5q0 -92 -42 -164t-123.5 -121.5t-199.5 -75.5t-266 -26h-383v-332q0 -256 254 -256h70v-37
h-922v37h49q254 0 254 256v813q0 254 -254 254h-47v37z" />
    <glyph glyph-name="Q" unicode="Q" horiz-adv-x="1962" 
d="M1878 209l31 -19q-19 -55 -34 -88.5t-32 -60t-43 -55.5q-81 -92 -184 -92q-120 0 -273 143q-169 -66 -354 -66q-228 0 -422 97.5t-307 263.5t-113 364q0 148 66 283t180.5 233.5t270 154.5t327.5 56t324.5 -56.5t268 -157t179.5 -233t64 -282.5q0 -139 -68 -284
q-36 -75 -79 -128.5t-121 -117.5q59 -38 95.5 -53t74.5 -15q82 0 149 113zM807 295l-27 10q15 78 75 119t155 41q63 0 115 -15t113.5 -51.5t158.5 -107.5q76 182 76 411q0 154 -34 280t-98 217.5t-152.5 140.5t-197.5 49q-110 0 -199.5 -49.5t-153.5 -141.5t-98 -219
t-34 -283q0 -207 59.5 -362t170.5 -239.5t257 -84.5q77 0 141.5 24t133.5 79q-125 129 -207 183t-154 54q-36 0 -55 -11t-45 -44z" />
    <glyph glyph-name="R" unicode="R" 
d="M1010 684h-314v-391q0 -128 63 -191t191 -63h41v-39h-882v39h38q129 0 191.5 62.5t62.5 191.5v813q0 130 -62 192t-192 62h-38v37h1083q220 0 348 -32t203 -108q43 -43 68.5 -102t25.5 -117q0 -158 -164 -254q-61 -33 -166 -59t-209 -35q-79 -6 -241 -6v-4
q80 -52 145 -86t131 -57.5t150 -42.5l33 -50q33 -48 49 -72t37 -55q56 -85 106.5 -147.5t83.5 -87.5q65 -43 186 -43h39v-39h-524zM696 721h398q141 0 231.5 34.5t135 105t44.5 181.5q0 318 -405 318h-404v-639z" />
    <glyph glyph-name="S" unicode="S" horiz-adv-x="1599" 
d="M1386 1370h35v-479h-35q-63 173 -143 270q-58 68 -145.5 119.5t-196 81t-219.5 29.5q-83 0 -148 -23t-110 -68q-32 -32 -51 -72t-19 -77q0 -70 54 -121q25 -25 71.5 -48t120 -45t205.5 -54q36 -11 49 -13l49 -12l78 -20q198 -51 289 -90t155 -103q50 -47 77.5 -110
t27.5 -136q0 -72 -31 -144.5t-88 -127.5q-74 -76 -182.5 -114t-247.5 -38q-97 0 -182.5 19.5t-208.5 71.5q-80 32 -122 43.5t-79 11.5q-71 0 -120.5 -37.5t-65.5 -106.5h-35v646h35q21 -172 139 -312q71 -82 181.5 -152.5t231.5 -109.5t230 -39q97 0 177.5 32t125.5 89
t45 129q0 76 -61 137q-28 27 -72.5 50t-115 47t-193.5 57l-100 27q-234 63 -324 98q-101 37 -158.5 74t-99.5 94q-62 80 -62 176q0 116 69 208.5t193 144.5t275 52q228 0 473 -127q86 -43 117 -43q78 0 112 115z" />
    <glyph glyph-name="T" unicode="T" horiz-adv-x="1792" 
d="M80 1397h1638v-709l-32 -2q-25 266 -160 457q-160 217 -406 217h-73v-1067q0 -254 253 -254h211v-39h-1220v39h209q254 0 254 254v1067h-90q-250 0 -406 -234q-77 -115 -117 -274q-13 -54 -26 -164h-35v709z" />
    <glyph glyph-name="U" unicode="U" 
d="M84 1397h969v-37h-111q-128 0 -191 -62.5t-63 -191.5v-709q0 -121 56 -208t161 -134t250 -47q127 0 237 36.5t175 100.5q119 122 119 342v500q0 240 -140 326q-40 25 -84 35t-127 12v37h678v-37q-63 -5 -100 -17t-76 -40q-57 -43 -87 -114.5t-30 -168.5v-557
q0 -222 -121 -340q-67 -64 -143 -92q-160 -60 -381 -60q-163 0 -296 32t-220 91q-164 113 -164 324v688q0 254 -254 254h-57v37z" />
    <glyph glyph-name="V" unicode="V" horiz-adv-x="1792" 
d="M47 1397h817v-37h-100q-68 0 -107 -28t-39 -79q0 -48 29 -114l381 -836l320 721q38 83 38 143q0 86 -53.5 137t-148.5 56v37h563v-37q-80 -9 -143 -46.5t-115 -108t-105 -187.5l-464 -1045l-35 -2l-541 1180q-96 209 -248 209h-49v37z" />
    <glyph glyph-name="W" unicode="W" horiz-adv-x="2410" 
d="M43 1397h727l2 -37q-89 -1 -130.5 -24t-41.5 -72q0 -48 18 -101l295 -817l285 709q-35 102 -61.5 150t-67.5 87q-36 38 -74.5 53t-93.5 15v37h758v-37h-37q-90 0 -140 -30.5t-50 -88.5q0 -39 14 -74l301 -821l295 752q22 61 22 110q0 75 -58.5 112t-180.5 40l-2 37h561
v-37q-56 -4 -90.5 -17.5t-75.5 -44.5q-84 -66 -143 -213l-439 -1116h-37l-382 1041l-416 -1041h-39l-404 1106q-53 151 -119 218t-161 67h-35v37z" />
    <glyph glyph-name="X" unicode="X" 
d="M68 1397h911v-37h-18q-75 0 -120.5 -23.5t-45.5 -64.5q0 -23 14.5 -55.5t38.5 -63.5l282 -326l220 224q80 83 80 153q0 71 -59 112t-171 44v37h750v-37q-133 -22 -228 -70q-174 -87 -319 -235l-250 -256l465 -543q89 -103 185 -161t179 -58h25v-37h-930v37h80
q86 0 133 24.5t47 67.5q0 47 -49 100l-323 379l-230 -235q-35 -37 -57 -66.5t-31.5 -57t-9.5 -56.5q0 -72 59.5 -114t165.5 -42h41v-37h-835v37q84 11 140.5 28.5t129.5 51.5q172 81 324 231l280 285l-463 534q-164 193 -375 193h-36v37z" />
    <glyph glyph-name="Y" unicode="Y" 
d="M100 1397h895v-35h-104q-62 0 -96.5 -23t-34.5 -65q0 -21 10 -39.5t59 -89.5l347 -479l311 409q63 80 63 137q0 66 -55 107t-143 41h-92v37h718v-35q-71 -8 -128 -26.5t-105 -48t-99.5 -79.5t-99.5 -112l-352 -465v-338q0 -128 63 -191t191 -63h94v-39h-995v39h98
q129 0 191.5 62.5t62.5 191.5v301l-418 571q-80 110 -157 152.5t-199 42.5h-25v37z" />
    <glyph glyph-name="Z" unicode="Z" horiz-adv-x="1686" 
d="M254 1397h1235v-37l-1000 -1323h447q235 0 373 164q63 76 101.5 152.5t86.5 226.5h37v-580h-1384v39l1005 1323h-299q-263 0 -401 -160q-56 -63 -89 -126t-77 -189h-35v510z" />
    <glyph glyph-name="bracketleft" unicode="[" horiz-adv-x="725" 
d="M152 1456h534v-37h-31q-122 0 -157 -39q-28 -30 -41 -79.5t-13 -131.5v-968q0 -106 48 -155.5t153 -49.5h39v-33h-532v1493z" />
    <glyph glyph-name="backslash" unicode="\" horiz-adv-x="569" 
d="M2 1387h126l447 -1418h-129z" />
    <glyph glyph-name="bracketright" unicode="]" horiz-adv-x="725" 
d="M59 1458h531v-1491h-533v37h43q104 0 151.5 49.5t47.5 159.5v1006q0 77 -19.5 122.5t-65 64.5t-124.5 19h-31v33z" />
    <glyph glyph-name="asciicircum" unicode="^" horiz-adv-x="1190" 
d="M147 666l411 718h82l404 -718h-159l-295 512l-290 -512h-153z" />
    <glyph glyph-name="underscore" unicode="_" horiz-adv-x="1024" 
d="M-12 -256v105h1048v-105h-1048z" />
    <glyph glyph-name="grave" unicode="`" horiz-adv-x="682" 
d="M-31 1747h412l194 -274h-43z" />
    <glyph glyph-name="a" unicode="a" horiz-adv-x="1792" 
d="M768 1098l-274 -623h555zM874 1425h37l562 -1222q27 -57 60.5 -94t75.5 -53.5t99 -16.5h37v-39h-811v39h106q79 0 115.5 21.5t36.5 66.5q0 28 -14.5 68t-63.5 145q-3 6 -9 20t-13 27l-23 51h-592l-45 -104q-22 -53 -22 -107q0 -46 25.5 -91t66.5 -68q27 -16 48.5 -21.5
t61.5 -7.5v-39h-569v39q62 7 98.5 22t81.5 50q106 82 207 309z" />
    <glyph glyph-name="b" unicode="b" horiz-adv-x="1792" 
d="M653 1362v-612h303q373 0 373 325q0 146 -79.5 216.5t-245.5 70.5h-351zM653 711v-676h314q199 0 305 88.5t106 251.5q0 139 -86 221q-65 65 -159 90t-275 25h-205zM63 1397h1024q119 0 230 -23.5t174 -62.5q78 -46 121 -111.5t43 -140.5q0 -122 -135 -211
q-54 -36 -116 -60t-175 -55v-4q144 -27 237 -65q254 -112 254 -308q0 -108 -76.5 -188.5t-218.5 -124t-335 -43.5h-1027v39h41q129 0 191.5 62.5t62.5 191.5v813q0 130 -62.5 193t-191.5 63h-41v35z" />
    <glyph glyph-name="c" unicode="c" horiz-adv-x="1749" 
d="M1593 492h35q-24 -89 -53 -148t-80 -123q-203 -250 -543 -250q-214 0 -399 99.5t-294 268t-109 363.5q0 116 43 230.5t125.5 214t191.5 170.5q165 108 381 108q72 0 136.5 -12.5t122 -40t118.5 -72.5q68 -47 100 -47q71 0 178 148h35l29 -672h-33q-17 73 -32.5 119
t-41.5 96q-69 141 -163 242t-205 154t-228 53q-140 0 -228 -74.5t-130.5 -232t-42.5 -400.5q0 -140 15 -248t46.5 -182.5t79.5 -124.5q59 -60 143.5 -91.5t184.5 -31.5q93 0 178.5 24t160 71.5t136.5 117.5q50 58 81 116.5t62 154.5z" />
    <glyph glyph-name="d" unicode="d" horiz-adv-x="2028" 
d="M668 1360v-1321h270q115 0 195 13t140 42.5t105 77.5q166 169 166 520q0 115 -20.5 217.5t-59.5 180.5t-98 137q-49 48 -110.5 77.5t-142 42.5t-193.5 13h-252zM68 1397h927q226 0 394.5 -56.5t283.5 -173.5q104 -101 160.5 -228t56.5 -261q0 -147 -61 -272t-172.5 -216
t-264.5 -140.5t-331 -49.5h-993v39h51q129 0 191.5 62.5t62.5 191.5v813q0 130 -62 192t-192 62h-51v37z" />
    <glyph glyph-name="e" unicode="e" horiz-adv-x="1686" 
d="M68 1397h1486v-541h-30q-41 142 -73.5 212.5t-84.5 133.5q-63 75 -137 107q-123 51 -299 51h-275v-664h74q165 0 262 142q50 73 74 174q12 43 22 127h35v-916h-35q-12 74 -28.5 139.5t-37 106.5t-52.5 82q-90 111 -256 111h-58v-625h230q102 0 183.5 14.5t146.5 45
t122 79.5q98 83 152 207q31 71 65 192h37v-575h-1521l-2 37h38q254 0 254 256v813q0 130 -62 192t-192 62h-38v37z" />
    <glyph glyph-name="f" unicode="f" horiz-adv-x="1686" 
d="M662 1360v-606h88q139 0 217 91t112 294h35v-801h-37q-16 104 -39 165t-63 109q-85 105 -244 105h-69v-424q0 -129 62.5 -191.5t190.5 -62.5h89v-39h-926v39h35q129 0 191.5 62.5t62.5 191.5v813q0 130 -62 192t-192 62h-35v37h1528v-604h-33q-15 78 -33 143t-35 100
q-50 111 -121.5 182.5t-169 106.5t-221.5 35h-331z" />
    <glyph glyph-name="g" unicode="g" 
d="M1669 1389h37l10 -603h-33q-34 109 -63 173.5t-64 113.5q-98 143 -247.5 226t-307.5 83q-82 0 -163 -30t-131 -80q-83 -83 -120.5 -229t-37.5 -377q0 -69 6 -137t16 -120.5t25 -103t33 -82.5q31 -52 70.5 -91t93 -68t113.5 -42.5t126 -13.5q85 0 170 21.5t137 56.5
q99 68 99 182v72q0 254 -254 254h-121v37h956v-37h-32q-129 0 -191.5 -62.5t-62.5 -191.5v-328h-37q-45 42 -78.5 56t-83.5 14q-44 0 -81.5 -8.5t-104.5 -36.5q-109 -39 -173 -52.5t-157 -13.5q-176 0 -328.5 53t-265 150.5t-174.5 229.5t-62 284q0 92 24 181.5t69 166.5
t112 146q78 77 171.5 130t198 82t208.5 29t203.5 -26.5t218.5 -85.5q89 -45 125 -45q37 0 72.5 29t78.5 94z" />
    <glyph glyph-name="h" unicode="h" 
d="M66 39h45q129 0 191.5 62.5t62.5 191.5q13 71 16.5 134.5t1.5 190.5q-2 136 -8.5 301t-12.5 214q-6 73 -22 110.5t-49 63.5q-60 53 -180 53h-48v37h881v-37h-31q-129 0 -191.5 -62.5t-62.5 -191.5v-375h752v375q0 130 -62 192t-192 62h-29v37h873v-37h-41
q-128 0 -191 -62.5t-63 -191.5v-813q0 -128 64 -191t190 -63h41v-39h-873v39h29q129 0 191.5 62.5t62.5 191.5v397h-752v-397q0 -128 64 -191t190 -63h31v-39h-878v39z" />
    <glyph glyph-name="i" unicode="i" horiz-adv-x="1087" 
d="M117 39h39q129 0 191.5 62.5t62.5 191.5q8 54 12.5 95.5t5.5 95t0 134.5q-4 342 -20 515q-6 70 -22.5 109t-49.5 65q-60 53 -180 53h-39v37h880v-37h-39q-129 0 -191 -62t-62 -192v-813q0 -129 62.5 -191.5t190.5 -62.5h39v-39h-880v39z" />
    <glyph glyph-name="j" unicode="j" horiz-adv-x="1450" 
d="M436 1397h963v-37h-41q-256 0 -256 -254v-678q0 -195 -115 -307q-77 -74 -189 -113t-241 -39q-121 0 -218 34.5t-161 98.5q-40 43 -64 93.5t-24 97.5q0 77 54.5 132.5t131.5 55.5t125 -49t48 -125q0 -121 -134 -168q-41 -14 -41 -30q0 -26 56 -60q70 -43 184 -43
q93 0 159 33t101 95.5t35 150.5v821q0 254 -256 254h-117v37z" />
    <glyph glyph-name="k" unicode="k" 
d="M111 1397h884v-35h-41q-126 0 -190 -63.5t-64 -192.5v-608l662 530q66 55 88.5 89.5t22.5 80.5q0 75 -64 119.5t-174 44.5h-33v35h817v-35h-20q-169 0 -481 -252l-275 -219l422 -647q70 -108 147.5 -156.5t180.5 -48.5h26v-39h-862v39h45q191 0 191 90q0 16 -8.5 34.5
t-34.5 59.5l-320 494l-330 -264v-160q0 -128 64 -191t190 -63h41v-39h-882v39h39q129 0 192.5 63t63.5 191v813q0 129 -63.5 192.5t-192.5 63.5h-41v35z" />
    <glyph glyph-name="l" unicode="l" horiz-adv-x="1686" 
d="M63 1397h953v-37h-101q-129 0 -191 -62t-62 -192v-1069h362q107 0 202 47.5t165 132.5q42 53 74 105t61 126t57 170h37v-618h-1557l-2 37h52q254 0 254 256v813q0 254 -254 254h-50v37z" />
    <glyph glyph-name="m" unicode="m" horiz-adv-x="2284" 
d="M49 1397h584l526 -1069l522 1069h551v-37h-51q-129 0 -191.5 -62.5t-62.5 -191.5v-813q0 -128 63 -191t191 -63h51v-39h-903v39h60q128 0 190.5 62.5t62.5 191.5v950h-4l-600 -1243h-34l-607 1239h-4v-901q0 -94 36 -159.5t106 -101t170 -38.5v-39h-656v39h14
q135 0 212 79t77 214v774q0 130 -62 192t-192 62h-49v37z" />
    <glyph glyph-name="n" unicode="n" horiz-adv-x="2005" 
d="M84 1397h561l971 -1006v602q0 110 -37.5 192.5t-108.5 125.5q-38 24 -76.5 34t-107.5 15v37h692v-37h-14q-151 0 -230 -96t-79 -279v-999h-33l-1206 1239v-830q0 -121 29 -193.5t94 -113.5q53 -32 129 -41q42 -7 120 -10v-37h-729v37q112 6 182.5 39.5t104 99.5t33.5 164
v790q0 73 -32.5 124t-94.5 78.5t-150 27.5h-18v37z" />
    <glyph glyph-name="o" unicode="o" horiz-adv-x="1962" 
d="M975 1425q196 0 358.5 -62.5t282.5 -182.5q101 -102 156 -227.5t55 -256.5q0 -197 -111.5 -363t-303 -263t-419.5 -97q-174 0 -327.5 55t-270.5 155.5t-182.5 234.5t-65.5 280q0 194 113 362t303 266.5t412 98.5zM1001 1389q-91 0 -171.5 -31.5t-135.5 -89.5
q-60 -63 -102.5 -149.5t-64 -193t-21.5 -229.5q0 -154 34 -280.5t98 -218t153 -139.5t198 -48q148 0 257.5 84.5t168 241.5t58.5 373q0 140 -32 262t-92 212.5t-145 143.5q-42 28 -97 45t-106 17z" />
    <glyph glyph-name="p" unicode="p" horiz-adv-x="1729" 
d="M645 1360v-696h279q207 0 306 85.5t99 264.5q0 209 -137 291q-49 29 -115 42t-164 13h-268zM49 1397h834q74 0 162 -5t158 -12.5t116 -17.5q165 -35 252.5 -125.5t87.5 -224.5q0 -92 -42 -164t-123.5 -121.5t-199.5 -75.5t-266 -26h-383v-332q0 -256 254 -256h70v-37
h-922v37h49q254 0 254 256v813q0 254 -254 254h-47v37z" />
    <glyph glyph-name="q" unicode="q" horiz-adv-x="1962" 
d="M1878 209l31 -19q-19 -55 -34 -88.5t-32 -60t-43 -55.5q-81 -92 -184 -92q-120 0 -273 143q-169 -66 -354 -66q-228 0 -422 97.5t-307 263.5t-113 364q0 148 66 283t180.5 233.5t270 154.5t327.5 56t324.5 -56.5t268 -157t179.5 -233t64 -282.5q0 -139 -68 -284
q-36 -75 -79 -128.5t-121 -117.5q59 -38 95.5 -53t74.5 -15q82 0 149 113zM807 295l-27 10q15 78 75 119t155 41q63 0 115 -15t113.5 -51.5t158.5 -107.5q76 182 76 411q0 154 -34 280t-98 217.5t-152.5 140.5t-197.5 49q-110 0 -199.5 -49.5t-153.5 -141.5t-98 -219
t-34 -283q0 -207 59.5 -362t170.5 -239.5t257 -84.5q77 0 141.5 24t133.5 79q-125 129 -207 183t-154 54q-36 0 -55 -11t-45 -44z" />
    <glyph glyph-name="r" unicode="r" 
d="M1010 684h-314v-391q0 -128 63 -191t191 -63h41v-39h-882v39h38q129 0 191.5 62.5t62.5 191.5v813q0 130 -62 192t-192 62h-38v37h1083q220 0 348 -32t203 -108q43 -43 68.5 -102t25.5 -117q0 -158 -164 -254q-61 -33 -166 -59t-209 -35q-79 -6 -241 -6v-4
q80 -52 145 -86t131 -57.5t150 -42.5l33 -50q33 -48 49 -72t37 -55q56 -85 106.5 -147.5t83.5 -87.5q65 -43 186 -43h39v-39h-524zM696 721h398q141 0 231.5 34.5t135 105t44.5 181.5q0 318 -405 318h-404v-639z" />
    <glyph glyph-name="s" unicode="s" horiz-adv-x="1599" 
d="M1386 1370h35v-479h-35q-63 173 -143 270q-58 68 -145.5 119.5t-196 81t-219.5 29.5q-83 0 -148 -23t-110 -68q-32 -32 -51 -72t-19 -77q0 -70 54 -121q25 -25 71.5 -48t120 -45t205.5 -54q36 -11 49 -13l49 -12l78 -20q198 -51 289 -90t155 -103q50 -47 77.5 -110
t27.5 -136q0 -72 -31 -144.5t-88 -127.5q-74 -76 -182.5 -114t-247.5 -38q-97 0 -182.5 19.5t-208.5 71.5q-80 32 -122 43.5t-79 11.5q-71 0 -120.5 -37.5t-65.5 -106.5h-35v646h35q21 -172 139 -312q71 -82 181.5 -152.5t231.5 -109.5t230 -39q97 0 177.5 32t125.5 89
t45 129q0 76 -61 137q-28 27 -72.5 50t-115 47t-193.5 57l-100 27q-234 63 -324 98q-101 37 -158.5 74t-99.5 94q-62 80 -62 176q0 116 69 208.5t193 144.5t275 52q228 0 473 -127q86 -43 117 -43q78 0 112 115z" />
    <glyph glyph-name="t" unicode="t" horiz-adv-x="1792" 
d="M80 1397h1638v-709l-32 -2q-25 266 -160 457q-160 217 -406 217h-73v-1067q0 -254 253 -254h211v-39h-1220v39h209q254 0 254 254v1067h-90q-250 0 -406 -234q-77 -115 -117 -274q-13 -54 -26 -164h-35v709z" />
    <glyph glyph-name="u" unicode="u" 
d="M84 1397h969v-37h-111q-128 0 -191 -62.5t-63 -191.5v-709q0 -121 56 -208t161 -134t250 -47q127 0 237 36.5t175 100.5q119 122 119 342v500q0 240 -140 326q-40 25 -84 35t-127 12v37h678v-37q-63 -5 -100 -17t-76 -40q-57 -43 -87 -114.5t-30 -168.5v-557
q0 -222 -121 -340q-67 -64 -143 -92q-160 -60 -381 -60q-163 0 -296 32t-220 91q-164 113 -164 324v688q0 254 -254 254h-57v37z" />
    <glyph glyph-name="v" unicode="v" horiz-adv-x="1792" 
d="M47 1397h817v-37h-100q-68 0 -107 -28t-39 -79q0 -48 29 -114l381 -836l320 721q38 83 38 143q0 86 -53.5 137t-148.5 56v37h563v-37q-80 -9 -143 -46.5t-115 -108t-105 -187.5l-464 -1045l-35 -2l-541 1180q-96 209 -248 209h-49v37z" />
    <glyph glyph-name="w" unicode="w" horiz-adv-x="2410" 
d="M43 1397h727l2 -37q-89 -1 -130.5 -24t-41.5 -72q0 -48 18 -101l295 -817l285 709q-35 102 -61.5 150t-67.5 87q-36 38 -74.5 53t-93.5 15v37h758v-37h-37q-90 0 -140 -30.5t-50 -88.5q0 -39 14 -74l301 -821l295 752q22 61 22 110q0 75 -58.5 112t-180.5 40l-2 37h561
v-37q-56 -4 -90.5 -17.5t-75.5 -44.5q-84 -66 -143 -213l-439 -1116h-37l-382 1041l-416 -1041h-39l-404 1106q-53 151 -119 218t-161 67h-35v37z" />
    <glyph glyph-name="x" unicode="x" 
d="M68 1397h911v-37h-18q-75 0 -120.5 -23.5t-45.5 -64.5q0 -23 14.5 -55.5t38.5 -63.5l282 -326l220 224q80 83 80 153q0 71 -59 112t-171 44v37h750v-37q-133 -22 -228 -70q-174 -87 -319 -235l-250 -256l465 -543q89 -103 185 -161t179 -58h25v-37h-930v37h80
q86 0 133 24.5t47 67.5q0 47 -49 100l-323 379l-230 -235q-35 -37 -57 -66.5t-31.5 -57t-9.5 -56.5q0 -72 59.5 -114t165.5 -42h41v-37h-835v37q84 11 140.5 28.5t129.5 51.5q172 81 324 231l280 285l-463 534q-164 193 -375 193h-36v37z" />
    <glyph glyph-name="y" unicode="y" 
d="M100 1397h895v-35h-104q-62 0 -96.5 -23t-34.5 -65q0 -21 10 -39.5t59 -89.5l347 -479l311 409q63 80 63 137q0 66 -55 107t-143 41h-92v37h718v-35q-71 -8 -128 -26.5t-105 -48t-99.5 -79.5t-99.5 -112l-352 -465v-338q0 -128 63 -191t191 -63h94v-39h-995v39h98
q129 0 191.5 62.5t62.5 191.5v301l-418 571q-80 110 -157 152.5t-199 42.5h-25v37z" />
    <glyph glyph-name="z" unicode="z" horiz-adv-x="1686" 
d="M254 1397h1235v-37l-1000 -1323h447q235 0 373 164q63 76 101.5 152.5t86.5 226.5h37v-580h-1384v39l1005 1323h-299q-263 0 -401 -160q-56 -63 -89 -126t-77 -189h-35v510z" />
    <glyph glyph-name="braceleft" unicode="{" horiz-adv-x="807" 
d="M717 1610v-45q-73 -13 -123 -47q-33 -25 -52.5 -63.5t-19.5 -78.5q0 -68 25 -162q24 -100 24 -174q0 -53 -22.5 -106t-67.5 -98q-43 -47 -94 -73t-143 -48v-4q93 -27 147.5 -56t95.5 -73q42 -43 64 -96t22 -105q0 -57 -24 -156q-25 -99 -25 -172q0 -49 23.5 -92t60.5 -65
q35 -26 109 -39v-47h-35q-102 1 -188.5 44.5t-137.5 118.5t-51 158q0 67 31 184q22 83 22 156q0 86 -50 140t-144 69v61q72 12 115 43q36 27 57.5 74t21.5 100q0 71 -20 150q-31 118 -31 178q0 76 48 151t124 117q52 30 102.5 41.5t135.5 14.5z" />
    <glyph glyph-name="bar" unicode="|" horiz-adv-x="410" 
d="M244 1422v-1864h-83v1864h83z" />
    <glyph glyph-name="braceright" unicode="}" horiz-adv-x="807" 
d="M90 -190v45q43 8 69.5 18t53.5 31q35 27 53.5 64.5t18.5 74.5q0 61 -25 164q-24 101 -24 172q0 114 90 207q45 47 94 72t143 49v4q-105 32 -151.5 56.5t-89.5 70.5q-41 42 -65 96t-24 106q0 53 25 156t25 170q0 51 -22.5 93.5t-61.5 66.5q-34 21 -109 39v45l35 2
q102 -1 188.5 -45t137.5 -118.5t51 -158.5q0 -69 -31 -184q-22 -81 -22 -156q0 -179 194 -211v-59q-70 -13 -115 -43q-36 -29 -57.5 -77t-21.5 -99q0 -70 20 -150q31 -121 31 -178q0 -77 -47 -149.5t-125 -118.5q-54 -28 -106.5 -40t-131.5 -15z" />
    <glyph glyph-name="asciitilde" unicode="~" horiz-adv-x="1065" 
d="M1044 709h57q-6 -159 -82.5 -241t-186.5 -82q-53 0 -112.5 17t-262.5 102q-146 61 -211 61q-68 0 -113.5 -41.5t-62.5 -137.5h-58q8 164 81.5 243.5t178.5 79.5q53 0 104 -14q101 -29 279 -105q96 -42 147 -56q30 -8 65 -8q71 0 119.5 47t57.5 135z" />
    <glyph glyph-name="nonbreakingspace" unicode="&#xa0;" horiz-adv-x="662" 
 />
    <glyph glyph-name="exclamdown" unicode="&#xa1;" horiz-adv-x="831" 
d="M340 809h35q4 -86 21.5 -159t62.5 -193q43 -130 59 -199q6 -33 6 -76q0 -92 -46.5 -150.5t-119.5 -58.5q-74 0 -121 60t-47 153q0 52 15.5 113t52.5 164q47 121 62 184t20 162zM354 1425q71 0 120.5 -48.5t49.5 -116.5q0 -69 -48.5 -117.5t-117.5 -48.5t-117 48t-48 118
q0 67 48 116t113 49z" />
    <glyph glyph-name="cent" unicode="&#xa2;" horiz-adv-x="874" 
d="M846 1137l-131 -361q110 -65 110 -176q0 -58 -39 -94.5t-100 -36.5q-42 0 -76 20l-157 -436q37 -10 71 -10q103 0 167.5 52.5t99.5 168.5h55q-15 -91 -62.5 -156.5t-124 -99t-176.5 -33.5q-19 0 -57 5l-147 -406h-54l150 416q-94 22 -169 81.5t-117 144t-42 177.5
q0 115 61 216t166 160t228 60h4h2q78 0 162 -30l125 338h51zM408 78l163 448q-22 36 -22 76q0 75 51 103q11 6 16 11.5t5 14.5q0 19 -32.5 32t-78.5 13q-77 0 -107 -43q-27 -36 -37 -100t-12 -211v-10v-6q1 -153 13.5 -226.5t40.5 -101.5z" />
    <glyph glyph-name="sterling" unicode="&#xa3;" horiz-adv-x="1323" 
d="M442 233q-73 58 -122.5 81.5t-100.5 23.5q-64 0 -103.5 -42.5t-39.5 -109.5q0 -68 44 -114.5t111 -46.5q72 0 127.5 55.5t83.5 152.5zM127 813h197q-60 129 -60 227q0 113 64 200.5t179 136t263 48.5q127 0 229 -36t157.5 -100.5t55.5 -147.5q0 -76 -45.5 -125
t-115.5 -49t-116 43t-46 108q0 90 96 146q41 24 41 41q0 35 -66.5 59.5t-154.5 24.5q-78 0 -136.5 -28t-90 -79t-31.5 -121q0 -34 9 -74t40 -129q32 -82 47 -145h395v-133h-366q4 -29 4 -66q0 -129 -86 -325q163 -60 319 -60q145 0 232.5 51.5t120.5 155.5l32 -2
q-3 -66 -13 -115.5t-30 -95.5t-49 -86q-113 -162 -309 -162q-101 0 -182.5 41t-192.5 144q-64 -95 -129 -139t-145 -44q-89 0 -148 60t-59 149q0 91 56 147t147 56q49 0 98 -13.5t123 -45.5q-3 109 -21 181.5t-65 168.5h-248v133z" />
    <glyph glyph-name="currency" unicode="&#xa4;" horiz-adv-x="1024" 
d="M779 1027l138 135l89 -87l-140 -140q87 -122 87 -260q0 -135 -87 -265l129 -128l-92 -91l-130 129q-80 -50 -136.5 -67.5t-126.5 -17.5q-74 0 -132.5 19t-130.5 66l-133 -129l-88 91l131 128q-88 117 -88 261q0 70 22 140t66 124l-136 135l93 92l133 -135q124 90 261 90
q134 0 271 -90zM510 987q-130 0 -221.5 -91.5t-91.5 -220.5q0 -130 92 -221.5t221 -91.5q130 0 221.5 91.5t91.5 221.5q0 129 -91.5 220.5t-221.5 91.5z" />
    <glyph glyph-name="yen" unicode="&#xa5;" 
d="M913 1034h541l49 66q45 61 45 117q0 67 -55 107t-147 40h-86v37h718v-37q-96 -11 -168 -40t-135.5 -84.5t-134.5 -147.5l-43 -58h481v-37h-508l-276 -364h784v-37h-784v-326q0 -113 67 -173t191 -60h92v-37h-995v37h47q163 0 233 56.5t70 189.5v313h-799v37h770l-264 364
h-506v37h480l-93 125q-84 115 -162.5 160t-195.5 45h-29v37h895v-37h-104q-60 0 -96.5 -22.5t-36.5 -61.5q0 -34 33 -80zM1425 997h-485l238 -325z" />
    <glyph glyph-name="brokenbar" unicode="&#xa6;" horiz-adv-x="410" 
d="M244 1422v-742h-83v742h83zM244 300v-742h-83v742h83z" />
    <glyph glyph-name="section" unicode="&#xa7;" horiz-adv-x="934" 
d="M114 -70l149 26q24 -132 75 -183.5t134 -51.5q79 0 128.5 50t49.5 124q0 29 -9.5 56t-29.5 51q-59 75 -269 232q-154 115 -200 180q-78 108 -78 230q0 100 50.5 176.5t133.5 106.5q-52 62 -78.5 124t-26.5 124q0 135 86 225.5t219 90.5q141 0 230 -86.5t107 -260.5
l-153 -19q-18 124 -62 171t-116 47q-70 0 -118.5 -47.5t-48.5 -113.5q0 -28 11.5 -56.5t33.5 -57.5q44 -58 236 -200q165 -124 214 -188q73 -96 73 -216q0 -108 -55 -186q-36 -51 -132 -100q66 -61 98.5 -131t32.5 -150q0 -143 -92.5 -235.5t-237.5 -92.5
q-146 0 -240.5 92.5t-114.5 268.5zM594 244q59 37 90 87t31 100q0 58 -42.5 120t-184.5 169q-113 84 -168 138q-68 -48 -95 -94t-27 -100q0 -63 38 -120.5t169 -151.5q113 -81 189 -148z" />
    <glyph glyph-name="dieresis" unicode="&#xa8;" horiz-adv-x="682" 
d="M66 1733q30 0 51.5 -9t41 -28t29 -41t9.5 -51q0 -36 -17 -65t-46.5 -46.5t-65.5 -17.5q-53 0 -91 38t-38 91q0 52 37.5 90.5t89.5 38.5zM688 1731q36 0 66 -16.5t47.5 -46t17.5 -64.5q0 -36 -17 -65.5t-46.5 -46.5t-65.5 -17q-52 0 -89.5 38.5t-37.5 90.5q0 50 36.5 88.5
t88.5 38.5z" />
    <glyph glyph-name="copyright" unicode="&#xa9;" horiz-adv-x="1556" 
d="M1128 1135l21 -281h-39q-71 236 -303 236q-96 0 -170 -47.5t-113 -136.5t-39 -206q0 -234 115 -335q87 -76 217 -76q199 0 311 162l37 -21q-138 -203 -383 -203q-129 0 -235.5 59t-167 160.5t-60.5 225.5q0 129 66 236t180 167t252 60q50 0 82.5 -6.5t104.5 -30.5
q24 -8 36 -8q31 0 50 45h38zM778 1386q192 0 355.5 -95.5t258.5 -258.5t95 -354q0 -192 -95.5 -355t-258.5 -258.5t-355 -95.5q-191 0 -354 95t-258.5 258.5t-95.5 355.5q0 191 95 354.5t258.5 258.5t354.5 95zM778 1325q-175 0 -324 -87t-236 -236t-87 -324
q0 -133 48.5 -249t141 -208.5t208.5 -141t249 -48.5q176 0 325 86.5t235.5 235.5t86.5 325q0 174 -86 323t-235 236.5t-326 87.5z" />
    <glyph glyph-name="ordfeminine" unicode="&#xaa;" horiz-adv-x="662" 
d="M373 1202v109q0 46 -14.5 62t-55.5 16q-36 0 -59 -8.5t-23 -22.5q0 -6 15 -21q16 -16 16 -37q0 -31 -26 -53t-64 -22q-35 0 -60.5 21.5t-25.5 51.5q0 57 73 92t189 35q117 0 165 -27t48 -93v-252q0 -66 39 -66q8 0 33 12l16 -28q-61 -58 -127 -58q-77 0 -129 72
q-49 -39 -94 -55.5t-101 -16.5q-64 0 -104.5 33.5t-40.5 85.5q0 79 85.5 122t244.5 48zM373 1094v77q-89 -5 -122.5 -26.5t-33.5 -75.5q0 -39 21 -62.5t57 -23.5t59 27q11 11 15 27.5t4 56.5z" />
    <glyph glyph-name="guillemotleft" unicode="&#xab;" horiz-adv-x="1087" 
d="M301 1229h254l-256 -529l254 -526h-252l-254 526zM811 1229h254l-256 -527l256 -528h-252l-256 526z" />
    <glyph glyph-name="logicalnot" unicode="&#xac;" horiz-adv-x="1460" 
d="M31 477v113h1362v-590h-113v477h-1249z" />
    <glyph glyph-name="sfthyphen" unicode="&#xad;" horiz-adv-x="1087" 
d="M213 600h686v-254h-686v254z" />
    <glyph glyph-name="registered" unicode="&#xae;" horiz-adv-x="1556" 
d="M385 1114h387q88 0 155.5 -28t104.5 -78.5t37 -116.5q0 -84 -54.5 -138.5t-168.5 -84.5l211 -297q35 -50 60 -68.5t61 -19.5v-35h-185l-295 405h-75v-235v-74q8 -37 32 -49t86 -12v-35h-366v35q64 0 86 26q10 14 13 21.5t4 24.5t1 65v522q0 50 -1 68t-4.5 26t-12.5 19
q-20 21 -76 24v35zM623 696h30q121 0 187.5 48.5t66.5 134.5q0 55 -26 98.5t-71 67.5t-103 24q-42 0 -84 -14v-359zM778 1386q192 0 355.5 -95.5t258.5 -258.5t95 -354q0 -192 -95.5 -355t-258.5 -258.5t-355 -95.5q-191 0 -354 95t-258.5 258.5t-95.5 355.5q0 191 95 354.5
t258.5 258.5t354.5 95zM778 1325q-175 0 -324 -87t-236 -236t-87 -324q0 -133 48.5 -249t141 -208.5t208.5 -141t249 -48.5q176 0 325 86.5t235.5 235.5t86.5 325q0 174 -86 323t-235 236.5t-326 87.5z" />
    <glyph glyph-name="glyph113" unicode="&#xaf;" horiz-adv-x="1024" 
d="M-12 1443v105h1048v-105h-1048z" />
    <glyph glyph-name="degree" unicode="&#xb0;" horiz-adv-x="819" 
d="M717 1096q0 -83 -42 -154.5t-112.5 -112.5t-152.5 -41q-83 0 -154 41.5t-112.5 112.5t-41.5 154q0 64 23 119t67 98t100 66.5t118 23.5q61 0 117.5 -23.5t99.5 -66.5t66.5 -99.5t23.5 -117.5zM635 1096q0 60 -31 112t-83 82.5t-113 30.5q-93 0 -159 -66t-65 -159
q0 -94 66 -160t160 -66q61 0 113 31t82 82.5t30 112.5z" />
    <glyph glyph-name="plusminus" unicode="&#xb1;" horiz-adv-x="1124" 
d="M20 836h486v485h112v-485h486v-113h-486v-485h-112v485h-486v113zM1104 0h-1084v113h1084v-113z" />
    <glyph glyph-name="twosuperior" unicode="&#xb2;" horiz-adv-x="918" 
d="M750 717h-644q21 68 64 118.5t131 108.5l39 27q82 55 121.5 91.5t56.5 76.5t17 92q0 85 -43.5 127.5t-129.5 42.5q-93 0 -159 -53t-66 -129q0 -25 17 -25q8 0 10.5 3.5t11.5 27.5q33 86 117 86q58 0 92.5 -37.5t34.5 -97.5q0 -59 -39.5 -95.5t-101.5 -36.5
q-46 0 -83 21.5t-58 60t-21 86.5q0 67 38.5 116.5t110.5 75.5t172 26q107 0 187 -25.5t124 -72.5t44 -109q0 -80 -73 -139.5t-208 -86.5q-99 -19 -188 -67v-4h389q30 0 44.5 12t26.5 51h21z" />
    <glyph glyph-name="threesuperior" unicode="&#xb3;" horiz-adv-x="918" 
d="M553 1090l172 -37q47 -18 75.5 -60t28.5 -90q0 -96 -100.5 -149.5t-282.5 -53.5q-101 0 -174 24.5t-112 69.5t-39 107q0 55 32 88t85 33q56 0 88 -33.5t32 -89.5q0 -31 -14.5 -52t-48.5 -42q-33 -20 -33 -35q0 -22 39.5 -35.5t99.5 -13.5q92 0 133 44t41 142
q0 87 -36.5 128.5t-112.5 41.5q-31 0 -49 -4q-10 -2 -29 -2q-16 0 -16 19q0 20 22 20q9 0 33 -4q38 -4 43 -4q59 0 87 37t28 114q0 150 -142 150q-48 0 -82 -13.5t-34 -31.5q0 -16 26 -29q60 -32 60 -90q0 -52 -37.5 -85.5t-91.5 -33.5q-50 0 -81.5 32.5t-31.5 86.5t39 96.5
t112.5 65t170.5 22.5q158 0 242.5 -43.5t84.5 -122.5q0 -45 -35.5 -84t-89.5 -55l-102 -24v-4z" />
    <glyph glyph-name="acute" unicode="&#xb4;" horiz-adv-x="682" 
d="M178 1470l195 277h411l-563 -277h-43z" />
    <glyph glyph-name="mu" unicode="&#xb5;" horiz-adv-x="1180" 
d="M125 1024h176v-682q0 -169 107 -217q47 -20 85.5 -20.5t81.5 18.5q40 18 85.5 56.5t64.5 82.5v762h176v-786q0 -95 47 -144q49 -49 109 -16q25 15 35.5 35.5t17.5 53t10 40.5h41q-18 -77 -42.5 -125.5t-96.5 -87.5q-66 -35 -122.5 -28.5t-88.5 30.5q-25 20 -38.5 37.5
t-22 37.5t-13 42.5l-10.5 52.5q-49 -73 -143 -141q-81 -60 -193 -60q-42 0 -79 17.5t-68 43.5t-45 37v-47q3 -68 28 -148t33 -124q17 -94 -15 -147.5t-79 -53.5t-78.5 53t-15.5 148q8 46 25 104t22.5 88.5t5.5 79.5v1008z" />
    <glyph glyph-name="paragraph" unicode="&#xb6;" horiz-adv-x="901" 
d="M337 -407v1045q-148 9 -240 117t-92 289q0 133 48 230t132.5 144.5t207.5 47.5h518v-173h-117v-1700h-140v1700h-182v-1700h-135z" />
    <glyph glyph-name="cedilla" unicode="&#xb8;" horiz-adv-x="682" 
d="M141 -84v23q146 25 228 75q127 -17 177 -47t50 -88q0 -62 -64 -98q-39 -22 -83 -31q-97 -20 -322 -20h-64v34h35q203 0 203 84q0 32 -32.5 50t-86.5 18h-41z" />
    <glyph glyph-name="onesuperior" unicode="&#xb9;" horiz-adv-x="918" 
d="M188 1321v16q131 3 244 27q87 18 143 47h54v-549q0 -60 33.5 -94.5t93.5 -34.5h67v-18h-655v18h70q59 0 96 30.5t37 80.5v352q0 57 -33 91t-88 34h-62z" />
    <glyph glyph-name="ordmasculine" unicode="&#xba;" horiz-adv-x="725" 
d="M332 913h-2q-119 0 -197 66q-44 41 -62.5 80.5t-25.5 107.5q6 65 20.5 100t49.5 72q82 86 215 86q81 0 147.5 -33t103.5 -92t37 -133q0 -71 -37 -129.5t-102 -91.5t-145 -33h-2zM246 1167v-6q0 -104 4.5 -140t17.5 -50q22 -29 68 -29q49 0 65 33q17 23 17 158v6
q0 112 -2 161q-3 51 -22 73t-62 22q-54 0 -72 -35q-8 -15 -11 -50t-3 -124v-4v-15z" />
    <glyph glyph-name="guillemotright" unicode="&#xbb;" horiz-adv-x="1087" 
d="M43 1229h254l254 -524l-252 -531h-256l256 528zM553 1229h254l256 -527l-256 -528h-254l254 528z" />
    <glyph glyph-name="onequarter" unicode="&#xbc;" horiz-adv-x="1708" 
d="M252 -57l1102 1548h156l-1101 -1548h-157zM331 733v554q-102 -81 -224 -113v123q62 20 138 73t123 114h108v-751h-145zM1430 -31v154h-383v123l405 474h122v-489h104v-108h-104v-154h-144zM1430 231v263l-230 -263h230z" />
    <glyph glyph-name="onehalf" unicode="&#xbd;" horiz-adv-x="1708" 
d="M228 -57l1101 1548h157l-1101 -1548h-157zM331 733v554q-102 -81 -224 -113v123q62 20 138 73t123 114h108v-751h-145zM1049 -31q6 56 48 113q62 87 206 191t171 135q37 41 37 84q0 48 -34.5 78.5t-103.5 30.5q-66 0 -98.5 -23.5t-53.5 -89.5l-151 15q29 112 101 164.5
t205 52.5q151 0 221.5 -59t70.5 -144q0 -84 -59 -159q-45 -56 -204 -172q-84 -61 -119 -96h386v-121h-623z" />
    <glyph glyph-name="threequarters" unicode="&#xbe;" horiz-adv-x="1708" 
d="M252 -57l1101 1548h157l-1101 -1548h-157zM33 929l146 15q20 -60 52 -82q43 -30 102 -30q71 0 114 39t43 94q0 50 -36 80t-120 30q-50 -3 -58 -3l22 110q81 -1 118.5 29t37.5 73q0 37 -30 63t-89 26q-56 0 -87.5 -22t-54.5 -80l-143 23q41 106 103.5 148t182.5 42
q144 0 209.5 -53.5t65.5 -133.5q0 -55 -35.5 -98t-102.5 -62q89 -22 131 -72.5t42 -118.5q0 -93 -79 -162t-225 -69q-140 0 -214 55.5t-95 158.5zM1429 -31v154h-382v123l404 474h123v-489h104v-108h-104v-154h-145zM1429 231v263l-229 -263h229z" />
    <glyph glyph-name="questiondown" unicode="&#xbf;" horiz-adv-x="1323" 
d="M670 879h39q-9 -75 -23.5 -110.5t-58.5 -92.5q-37 -52 -43 -62q-42 -63 -59 -130t-17 -165q0 -152 59 -231.5t172 -79.5q78 0 153 29.5t128 79.5q29 26 29 53q0 20 -12 29t-48 12q-38 6 -63 14q-92 40 -92 137q0 68 47.5 114t115.5 46q72 0 121 -55t49 -137
q0 -128 -96 -224q-131 -131 -377 -131q-107 0 -201 26t-165 74.5t-109.5 114.5t-38.5 142q0 67 27.5 122.5t84 101.5t152.5 91l50 25q99 46 135 88t41 119zM688 1423q71 0 119.5 -47.5t48.5 -118.5q0 -69 -48 -116t-118 -47q-68 0 -116 48t-48 115t48.5 116.5t113.5 49.5z
" />
    <glyph glyph-name="Agrave" unicode="&#xc0;" horiz-adv-x="1792" 
d="M768 1098l-274 -623h555zM874 1425h37l562 -1222q27 -57 60.5 -94t75.5 -53.5t99 -16.5h37v-39h-811v39h106q79 0 115.5 21.5t36.5 66.5q0 28 -14.5 68t-63.5 145q-3 6 -9 20t-13 27l-23 51h-592l-45 -104q-22 -53 -22 -107q0 -46 25.5 -91t66.5 -68q27 -16 48.5 -21.5
t61.5 -7.5v-39h-569v39q62 7 98.5 22t81.5 50q106 82 207 309zM524 1747h412l194 -274h-43z" />
    <glyph glyph-name="Aacute" unicode="&#xc1;" horiz-adv-x="1792" 
d="M768 1098l-274 -623h555zM874 1425h37l562 -1222q27 -57 60.5 -94t75.5 -53.5t99 -16.5h37v-39h-811v39h106q79 0 115.5 21.5t36.5 66.5q0 28 -14.5 68t-63.5 145q-3 6 -9 20t-13 27l-23 51h-592l-45 -104q-22 -53 -22 -107q0 -46 25.5 -91t66.5 -68q27 -16 48.5 -21.5
t61.5 -7.5v-39h-569v39q62 7 98.5 22t81.5 50q106 82 207 309zM733 1470l195 277h411l-563 -277h-43z" />
    <glyph glyph-name="Acircumflex" unicode="&#xc2;" horiz-adv-x="1792" 
d="M768 1098l-274 -623h555zM874 1425h37l562 -1222q27 -57 60.5 -94t75.5 -53.5t99 -16.5h37v-39h-811v39h106q79 0 115.5 21.5t36.5 66.5q0 28 -14.5 68t-63.5 145q-3 6 -9 20t-13 27l-23 51h-592l-45 -104q-22 -53 -22 -107q0 -46 25.5 -91t66.5 -68q27 -16 48.5 -21.5
t61.5 -7.5v-39h-569v39q62 7 98.5 22t81.5 50q106 82 207 309zM770 1753h313l242 -278l-57 2l-344 159l-338 -155h-56z" />
    <glyph glyph-name="Atilde" unicode="&#xc3;" horiz-adv-x="1792" 
d="M768 1098l-274 -623h555zM874 1425h37l562 -1222q27 -57 60.5 -94t75.5 -53.5t99 -16.5h37v-39h-811v39h106q79 0 115.5 21.5t36.5 66.5q0 28 -14.5 68t-63.5 145q-3 6 -9 20t-13 27l-23 51h-592l-45 -104q-22 -53 -22 -107q0 -46 25.5 -91t66.5 -68q27 -16 48.5 -21.5
t61.5 -7.5v-39h-569v39q62 7 98.5 22t81.5 50q106 82 207 309zM496 1491h-35q20 120 92.5 183t189.5 63q95 0 273 -64q140 -53 201 -53q54 0 86.5 26.5t48.5 84.5l37 -2q-7 -93 -48 -150q-34 -49 -97.5 -76.5t-133.5 -27.5q-46 0 -108 15.5t-166 51.5q-147 53 -195 53
q-49 0 -81.5 -23.5t-63.5 -80.5z" />
    <glyph glyph-name="Adieresis" unicode="&#xc4;" horiz-adv-x="1792" 
d="M768 1098l-274 -623h555zM874 1425h37l562 -1222q27 -57 60.5 -94t75.5 -53.5t99 -16.5h37v-39h-811v39h106q79 0 115.5 21.5t36.5 66.5q0 28 -14.5 68t-63.5 145q-3 6 -9 20t-13 27l-23 51h-592l-45 -104q-22 -53 -22 -107q0 -46 25.5 -91t66.5 -68q27 -16 48.5 -21.5
t61.5 -7.5v-39h-569v39q62 7 98.5 22t81.5 50q106 82 207 309zM621 1733q30 0 51.5 -9t41 -28t29 -41t9.5 -51q0 -36 -17 -65t-46.5 -46.5t-65.5 -17.5q-53 0 -91 38t-38 91q0 52 37.5 90.5t89.5 38.5zM1243 1731q36 0 66 -16.5t47.5 -46t17.5 -64.5q0 -36 -17 -65.5
t-46.5 -46.5t-65.5 -17q-52 0 -89.5 38.5t-37.5 90.5q0 50 36.5 88.5t88.5 38.5z" />
    <glyph glyph-name="Aring" unicode="&#xc5;" horiz-adv-x="1792" 
d="M768 1098l-274 -623h555zM874 1425h37l562 -1222q27 -57 60.5 -94t75.5 -53.5t99 -16.5h37v-39h-811v39h106q79 0 115.5 21.5t36.5 66.5q0 28 -14.5 68t-63.5 145q-3 6 -9 20t-13 27l-23 51h-592l-45 -104q-22 -53 -22 -107q0 -46 25.5 -91t66.5 -68q27 -16 48.5 -21.5
t61.5 -7.5v-39h-569v39q62 7 98.5 22t81.5 50q106 82 207 309zM928 1917q60 0 112 -29t81.5 -80t29.5 -112q0 -91 -65 -155t-154 -64q-59 0 -110 29.5t-81 80t-30 109.5q0 58 29.5 108.5t79.5 81.5t108 31zM934 1821q-52 0 -88.5 -36.5t-36.5 -88.5q0 -51 36 -88t87 -37
q52 0 88.5 36.5t36.5 88.5q0 50 -36.5 87.5t-86.5 37.5z" />
    <glyph glyph-name="AE" unicode="&#xc6;" horiz-adv-x="2347" 
d="M1004 1360l-498 -891h596v891h-98zM668 1397h1536v-535h-27q-38 137 -69 205.5t-85 132.5q-66 82 -167 121t-242 39h-219v-664h30q79 0 147.5 38.5t115.5 109.5q33 50 55.5 123t36.5 176h30v-914h-30q-17 122 -43.5 195.5t-71.5 128.5q-94 113 -252 113h-18v-627h182
q312 0 469 199q38 48 64.5 92t50 102.5t47.5 147.5h37v-580h-1434v39h37q129 0 191.5 62.5t62.5 191.5v143h-617l-18 -33q-76 -131 -76 -200q0 -152 211 -164v-39h-563v39q49 4 92 18t83 44t70.5 67t63.5 96l526 930q44 80 44 113q0 53 -95 53h-155v37z" />
    <glyph glyph-name="Ccedilla" unicode="&#xc7;" horiz-adv-x="1749" 
d="M1593 492h35q-24 -89 -53 -148t-80 -123q-203 -250 -543 -250q-214 0 -399 99.5t-294 268t-109 363.5q0 116 43 230.5t125.5 214t191.5 170.5q165 108 381 108q72 0 136.5 -12.5t122 -40t118.5 -72.5q68 -47 100 -47q71 0 178 148h35l29 -672h-33q-17 73 -32.5 119
t-41.5 96q-69 141 -163 242t-205 154t-228 53q-140 0 -228 -74.5t-130.5 -232t-42.5 -400.5q0 -140 15 -248t46.5 -182.5t79.5 -124.5q59 -60 143.5 -91.5t184.5 -31.5q93 0 178.5 24t160 71.5t136.5 117.5q50 58 81 116.5t62 154.5zM676 -84v23q146 25 228 75
q127 -17 177 -47t50 -88q0 -62 -64 -98q-39 -22 -83 -31q-97 -20 -322 -20h-64v34h35q203 0 203 84q0 32 -32.5 50t-86.5 18h-41z" />
    <glyph glyph-name="Egrave" unicode="&#xc8;" horiz-adv-x="1686" 
d="M68 1397h1486v-541h-30q-41 142 -73.5 212.5t-84.5 133.5q-63 75 -137 107q-123 51 -299 51h-275v-664h74q165 0 262 142q50 73 74 174q12 43 22 127h35v-916h-35q-12 74 -28.5 139.5t-37 106.5t-52.5 82q-90 111 -256 111h-58v-625h230q102 0 183.5 14.5t146.5 45
t122 79.5q98 83 152 207q31 71 65 192h37v-575h-1521l-2 37h38q254 0 254 256v813q0 130 -62 192t-192 62h-38v37zM471 1747h412l194 -274h-43z" />
    <glyph glyph-name="Eacute" unicode="&#xc9;" horiz-adv-x="1686" 
d="M68 1397h1486v-541h-30q-41 142 -73.5 212.5t-84.5 133.5q-63 75 -137 107q-123 51 -299 51h-275v-664h74q165 0 262 142q50 73 74 174q12 43 22 127h35v-916h-35q-12 74 -28.5 139.5t-37 106.5t-52.5 82q-90 111 -256 111h-58v-625h230q102 0 183.5 14.5t146.5 45
t122 79.5q98 83 152 207q31 71 65 192h37v-575h-1521l-2 37h38q254 0 254 256v813q0 130 -62 192t-192 62h-38v37zM680 1470l195 277h411l-563 -277h-43z" />
    <glyph glyph-name="Ecircumflex" unicode="&#xca;" horiz-adv-x="1686" 
d="M68 1397h1486v-541h-30q-41 142 -73.5 212.5t-84.5 133.5q-63 75 -137 107q-123 51 -299 51h-275v-664h74q165 0 262 142q50 73 74 174q12 43 22 127h35v-916h-35q-12 74 -28.5 139.5t-37 106.5t-52.5 82q-90 111 -256 111h-58v-625h230q102 0 183.5 14.5t146.5 45
t122 79.5q98 83 152 207q31 71 65 192h37v-575h-1521l-2 37h38q254 0 254 256v813q0 130 -62 192t-192 62h-38v37zM717 1753h313l242 -278l-57 2l-344 159l-338 -155h-56z" />
    <glyph glyph-name="Edieresis" unicode="&#xcb;" horiz-adv-x="1686" 
d="M68 1397h1486v-541h-30q-41 142 -73.5 212.5t-84.5 133.5q-63 75 -137 107q-123 51 -299 51h-275v-664h74q165 0 262 142q50 73 74 174q12 43 22 127h35v-916h-35q-12 74 -28.5 139.5t-37 106.5t-52.5 82q-90 111 -256 111h-58v-625h230q102 0 183.5 14.5t146.5 45
t122 79.5q98 83 152 207q31 71 65 192h37v-575h-1521l-2 37h38q254 0 254 256v813q0 130 -62 192t-192 62h-38v37zM568 1733q30 0 51.5 -9t41 -28t29 -41t9.5 -51q0 -36 -17 -65t-46.5 -46.5t-65.5 -17.5q-53 0 -91 38t-38 91q0 52 37.5 90.5t89.5 38.5zM1190 1731
q36 0 66 -16.5t47.5 -46t17.5 -64.5q0 -36 -17 -65.5t-46.5 -46.5t-65.5 -17q-52 0 -89.5 38.5t-37.5 90.5q0 50 36.5 88.5t88.5 38.5z" />
    <glyph glyph-name="Igrave" unicode="&#xcc;" horiz-adv-x="1087" 
d="M117 39h39q129 0 191.5 62.5t62.5 191.5v106v90v129v519q-8 66 -24.5 105t-49.5 65q-60 53 -180 53h-39v37h880v-37h-39q-129 0 -191 -62t-62 -192v-813q0 -129 62.5 -191.5t190.5 -62.5h39v-39h-880v39zM172 1747h412l194 -274h-43z" />
    <glyph glyph-name="Iacute" unicode="&#xcd;" horiz-adv-x="1087" 
d="M117 39h39q129 0 191.5 62.5t62.5 191.5v106v90v129v519q-8 66 -24.5 105t-49.5 65q-60 53 -180 53h-39v37h880v-37h-39q-129 0 -191 -62t-62 -192v-813q0 -129 62.5 -191.5t190.5 -62.5h39v-39h-880v39zM381 1470l195 277h411l-563 -277h-43z" />
    <glyph glyph-name="Icircumflex" unicode="&#xce;" horiz-adv-x="1087" 
d="M117 39h39q129 0 191.5 62.5t62.5 191.5v106v90v129v519q-8 66 -24.5 105t-49.5 65q-60 53 -180 53h-39v37h880v-37h-39q-129 0 -191 -62t-62 -192v-813q0 -129 62.5 -191.5t190.5 -62.5h39v-39h-880v39zM418 1753h313l242 -278l-57 2l-344 159l-338 -155h-56z" />
    <glyph glyph-name="Idieresis" unicode="&#xcf;" horiz-adv-x="1087" 
d="M117 39h39q129 0 191.5 62.5t62.5 191.5v106v90v129v519q-8 66 -24.5 105t-49.5 65q-60 53 -180 53h-39v37h880v-37h-39q-129 0 -191 -62t-62 -192v-813q0 -129 62.5 -191.5t190.5 -62.5h39v-39h-880v39zM269 1733q30 0 51.5 -9t41 -28t29 -41t9.5 -51q0 -36 -17 -65
t-46.5 -46.5t-65.5 -17.5q-53 0 -91 38t-38 91q0 52 37.5 90.5t89.5 38.5zM891 1731q36 0 66 -16.5t47.5 -46t17.5 -64.5q0 -36 -17 -65.5t-46.5 -46.5t-65.5 -17q-52 0 -89.5 38.5t-37.5 90.5q0 50 36.5 88.5t88.5 38.5z" />
    <glyph glyph-name="Eth" unicode="&#xd0;" horiz-adv-x="2028" 
d="M668 1364v-645h506v-37h-506v-647h286q157 0 254.5 32t167.5 107q168 177 168 522q0 178 -44.5 311.5t-131.5 219.5q-75 73 -177.5 105t-270.5 32h-252zM68 1401h923q161 0 308.5 -34.5t248.5 -96.5q102 -64 180 -157.5t120 -207.5t42 -229q0 -143 -60.5 -267
t-173 -216.5t-266 -142.5t-329.5 -50h-993v37h59q120 0 183 59.5t63 173.5v412h-295v37h295v407q0 122 -67.5 180t-209.5 58h-28v37z" />
    <glyph glyph-name="Ntilde" unicode="&#xd1;" horiz-adv-x="2005" 
d="M84 1397h561l971 -1006v602q0 110 -37.5 192.5t-108.5 125.5q-38 24 -76.5 34t-107.5 15v37h692v-37h-14q-151 0 -230 -96t-79 -279v-999h-33l-1206 1239v-830q0 -121 29 -193.5t94 -113.5q53 -32 129 -41q42 -7 120 -10v-37h-729v37q112 6 182.5 39.5t104 99.5t33.5 164
v790q0 73 -32.5 124t-94.5 78.5t-150 27.5h-18v37zM603 1491h-35q20 120 92.5 183t189.5 63q95 0 273 -64q140 -53 201 -53q54 0 86.5 26.5t48.5 84.5l37 -2q-7 -93 -48 -150q-34 -49 -97.5 -76.5t-133.5 -27.5q-46 0 -108 15.5t-166 51.5q-147 53 -195 53
q-49 0 -81.5 -23.5t-63.5 -80.5z" />
    <glyph glyph-name="Ograve" unicode="&#xd2;" horiz-adv-x="1962" 
d="M975 1425q196 0 358.5 -62.5t282.5 -182.5q101 -102 156 -227.5t55 -256.5q0 -197 -111.5 -363t-303 -263t-419.5 -97q-174 0 -327.5 55t-270.5 155.5t-182.5 234.5t-65.5 280q0 194 113 362t303 266.5t412 98.5zM1001 1389q-91 0 -171.5 -31.5t-135.5 -89.5
q-60 -63 -102.5 -149.5t-64 -193t-21.5 -229.5q0 -154 34 -280.5t98 -218t153 -139.5t198 -48q148 0 257.5 84.5t168 241.5t58.5 373q0 140 -32 262t-92 212.5t-145 143.5q-42 28 -97 45t-106 17zM610 1747h412l194 -274h-43z" />
    <glyph glyph-name="Oacute" unicode="&#xd3;" horiz-adv-x="1962" 
d="M975 1425q196 0 358.5 -62.5t282.5 -182.5q101 -102 156 -227.5t55 -256.5q0 -197 -111.5 -363t-303 -263t-419.5 -97q-174 0 -327.5 55t-270.5 155.5t-182.5 234.5t-65.5 280q0 194 113 362t303 266.5t412 98.5zM1001 1389q-91 0 -171.5 -31.5t-135.5 -89.5
q-60 -63 -102.5 -149.5t-64 -193t-21.5 -229.5q0 -154 34 -280.5t98 -218t153 -139.5t198 -48q148 0 257.5 84.5t168 241.5t58.5 373q0 140 -32 262t-92 212.5t-145 143.5q-42 28 -97 45t-106 17zM819 1470l195 277h411l-563 -277h-43z" />
    <glyph glyph-name="Ocircumflex" unicode="&#xd4;" horiz-adv-x="1962" 
d="M975 1425q196 0 358.5 -62.5t282.5 -182.5q101 -102 156 -227.5t55 -256.5q0 -197 -111.5 -363t-303 -263t-419.5 -97q-174 0 -327.5 55t-270.5 155.5t-182.5 234.5t-65.5 280q0 194 113 362t303 266.5t412 98.5zM1001 1389q-91 0 -171.5 -31.5t-135.5 -89.5
q-60 -63 -102.5 -149.5t-64 -193t-21.5 -229.5q0 -154 34 -280.5t98 -218t153 -139.5t198 -48q148 0 257.5 84.5t168 241.5t58.5 373q0 140 -32 262t-92 212.5t-145 143.5q-42 28 -97 45t-106 17zM856 1753h313l242 -278l-57 2l-344 159l-338 -155h-56z" />
    <glyph glyph-name="Otilde" unicode="&#xd5;" horiz-adv-x="1962" 
d="M975 1425q196 0 358.5 -62.5t282.5 -182.5q101 -102 156 -227.5t55 -256.5q0 -197 -111.5 -363t-303 -263t-419.5 -97q-174 0 -327.5 55t-270.5 155.5t-182.5 234.5t-65.5 280q0 194 113 362t303 266.5t412 98.5zM1001 1389q-91 0 -171.5 -31.5t-135.5 -89.5
q-60 -63 -102.5 -149.5t-64 -193t-21.5 -229.5q0 -154 34 -280.5t98 -218t153 -139.5t198 -48q148 0 257.5 84.5t168 241.5t58.5 373q0 140 -32 262t-92 212.5t-145 143.5q-42 28 -97 45t-106 17zM582 1491h-35q20 120 92.5 183t189.5 63q95 0 273 -64q140 -53 201 -53
q54 0 86.5 26.5t48.5 84.5l37 -2q-7 -93 -48 -150q-34 -49 -97.5 -76.5t-133.5 -27.5q-46 0 -108 15.5t-166 51.5q-147 53 -195 53q-49 0 -81.5 -23.5t-63.5 -80.5z" />
    <glyph glyph-name="Odieresis" unicode="&#xd6;" horiz-adv-x="1962" 
d="M975 1425q196 0 358.5 -62.5t282.5 -182.5q101 -102 156 -227.5t55 -256.5q0 -197 -111.5 -363t-303 -263t-419.5 -97q-174 0 -327.5 55t-270.5 155.5t-182.5 234.5t-65.5 280q0 194 113 362t303 266.5t412 98.5zM1001 1389q-91 0 -171.5 -31.5t-135.5 -89.5
q-60 -63 -102.5 -149.5t-64 -193t-21.5 -229.5q0 -154 34 -280.5t98 -218t153 -139.5t198 -48q148 0 257.5 84.5t168 241.5t58.5 373q0 140 -32 262t-92 212.5t-145 143.5q-42 28 -97 45t-106 17zM707 1733q30 0 51.5 -9t41 -28t29 -41t9.5 -51q0 -36 -17 -65t-46.5 -46.5
t-65.5 -17.5q-53 0 -91 38t-38 91q0 52 37.5 90.5t89.5 38.5zM1329 1731q36 0 66 -16.5t47.5 -46t17.5 -64.5q0 -36 -17 -65.5t-46.5 -46.5t-65.5 -17q-52 0 -89.5 38.5t-37.5 90.5q0 50 36.5 88.5t88.5 38.5z" />
    <glyph glyph-name="multiply" unicode="&#xd7;" horiz-adv-x="1155" 
d="M165 328l353 353l-352 352l58 58l352 -352l352 352l56 -57l-352 -352l354 -354l-57 -58l-354 354l-353 -353z" />
    <glyph glyph-name="Oslash" unicode="&#xd8;" 
d="M1567 1266l157 159l25 -22l-156 -160q77 -62 120 -115.5t79 -128.5q76 -152 76 -299q0 -128 -55 -253t-154 -224q-120 -118 -282.5 -180.5t-350.5 -62.5q-147 0 -264.5 36t-251.5 123l-158 -157l-24 20l155 158q-87 75 -133 132t-84 136q-61 128 -61 272
q0 198 111.5 365.5t304 263.5t423.5 96q97 0 182.5 -16t168.5 -51t172 -92zM1448 1096l-809 -826q136 -256 395 -256q182 0 299 123q81 84 115 178q68 180 68 422q0 98 -13 169t-55 190zM625 303l809 825q-46 92 -105 148q-122 119 -293 119q-142 0 -253 -87t-170.5 -247
t-59.5 -371q0 -111 16.5 -200t55.5 -187z" />
    <glyph glyph-name="Ugrave" unicode="&#xd9;" 
d="M84 1397h969v-37h-111q-128 0 -191 -62.5t-63 -191.5v-709q0 -121 56 -208t161 -134t250 -47q127 0 237 36.5t175 100.5q119 122 119 342v500q0 240 -140 326q-40 25 -84 35t-127 12v37h678v-37q-63 -5 -100 -17t-76 -40q-57 -43 -87 -114.5t-30 -168.5v-557
q0 -222 -121 -340q-67 -64 -143 -92q-160 -60 -381 -60q-163 0 -296 32t-220 91q-164 113 -164 324v688q0 254 -254 254h-57v37zM653 1747h412l194 -274h-43z" />
    <glyph glyph-name="Uacute" unicode="&#xda;" 
d="M84 1397h969v-37h-111q-128 0 -191 -62.5t-63 -191.5v-709q0 -121 56 -208t161 -134t250 -47q127 0 237 36.5t175 100.5q119 122 119 342v500q0 240 -140 326q-40 25 -84 35t-127 12v37h678v-37q-63 -5 -100 -17t-76 -40q-57 -43 -87 -114.5t-30 -168.5v-557
q0 -222 -121 -340q-67 -64 -143 -92q-160 -60 -381 -60q-163 0 -296 32t-220 91q-164 113 -164 324v688q0 254 -254 254h-57v37zM862 1470l195 277h411l-563 -277h-43z" />
    <glyph glyph-name="Ucircumflex" unicode="&#xdb;" 
d="M84 1397h969v-37h-111q-128 0 -191 -62.5t-63 -191.5v-709q0 -121 56 -208t161 -134t250 -47q127 0 237 36.5t175 100.5q119 122 119 342v500q0 240 -140 326q-40 25 -84 35t-127 12v37h678v-37q-63 -5 -100 -17t-76 -40q-57 -43 -87 -114.5t-30 -168.5v-557
q0 -222 -121 -340q-67 -64 -143 -92q-160 -60 -381 -60q-163 0 -296 32t-220 91q-164 113 -164 324v688q0 254 -254 254h-57v37zM899 1753h313l242 -278l-57 2l-344 159l-338 -155h-56z" />
    <glyph glyph-name="Udieresis" unicode="&#xdc;" 
d="M84 1397h969v-37h-111q-128 0 -191 -62.5t-63 -191.5v-709q0 -121 56 -208t161 -134t250 -47q127 0 237 36.5t175 100.5q119 122 119 342v500q0 240 -140 326q-40 25 -84 35t-127 12v37h678v-37q-63 -5 -100 -17t-76 -40q-57 -43 -87 -114.5t-30 -168.5v-557
q0 -222 -121 -340q-67 -64 -143 -92q-160 -60 -381 -60q-163 0 -296 32t-220 91q-164 113 -164 324v688q0 254 -254 254h-57v37zM750 1733q30 0 51.5 -9t41 -28t29 -41t9.5 -51q0 -36 -17 -65t-46.5 -46.5t-65.5 -17.5q-53 0 -91 38t-38 91q0 52 37.5 90.5t89.5 38.5z
M1372 1731q36 0 66 -16.5t47.5 -46t17.5 -64.5q0 -36 -17 -65.5t-46.5 -46.5t-65.5 -17q-52 0 -89.5 38.5t-37.5 90.5q0 50 36.5 88.5t88.5 38.5z" />
    <glyph glyph-name="Yacute" unicode="&#xdd;" 
d="M100 1397h895v-35h-104q-62 0 -96.5 -23t-34.5 -65q0 -21 10 -39.5t59 -89.5l347 -479l311 409q63 80 63 137q0 66 -55 107t-143 41h-92v37h718v-35q-71 -8 -128 -26.5t-105 -48t-99.5 -79.5t-99.5 -112l-352 -465v-338q0 -128 63 -191t191 -63h94v-39h-995v39h98
q129 0 191.5 62.5t62.5 191.5v301l-418 571q-80 110 -157 152.5t-199 42.5h-25v37zM862 1470l195 277h411l-563 -277h-43z" />
    <glyph glyph-name="Thorn" unicode="&#xde;" horiz-adv-x="1729" 
d="M645 1047v-697h287q397 0 397 348q0 179 -98 264t-307 85h-279zM918 1399v-37h-41q-89 0 -139.5 -15t-71.5 -49q-13 -23 -17 -59t-4 -123v-33h273q71 0 141.5 -3t126 -9.5t105.5 -15.5t85 -21q283 -91 283 -336q0 -115 -70 -203t-202 -135t-304 -47h-438v-18
q0 -129 62.5 -193.5t187.5 -64.5h74v-37h-922v37h39q127 0 195.5 57.5t68.5 165.5v832q0 97 -26 156t-83.5 86.5t-148.5 27.5h-43v37h869z" />
    <glyph glyph-name="germandbls" unicode="&#xdf;" horiz-adv-x="3198" 
d="M1386 1370h35v-479h-35q-63 173 -143 270q-58 68 -145.5 119.5t-196 81t-219.5 29.5q-83 0 -148 -23t-110 -68q-32 -32 -51 -72t-19 -77q0 -70 54 -121q25 -25 71.5 -48t120 -45t205.5 -54q36 -11 49 -13l49 -12l78 -20q198 -51 289 -90t155 -103q50 -47 77.5 -110
t27.5 -136q0 -72 -31 -144.5t-88 -127.5q-74 -76 -182.5 -114t-247.5 -38q-97 0 -182.5 19.5t-208.5 71.5q-80 32 -122 43.5t-79 11.5q-71 0 -120.5 -37.5t-65.5 -106.5h-35v646h35q21 -172 139 -312q71 -82 181.5 -152.5t231.5 -109.5t230 -39q97 0 177.5 32t125.5 89
t45 129q0 76 -61 137q-28 27 -72.5 50t-115 47t-193.5 57l-100 27q-234 63 -324 98q-101 37 -158.5 74t-99.5 94q-62 80 -62 176q0 116 69 208.5t193 144.5t275 52q228 0 473 -127q86 -43 117 -43q78 0 112 115zM2985 1370h35v-479h-35q-63 173 -143 270
q-58 68 -145.5 119.5t-196 81t-219.5 29.5q-83 0 -148 -23t-110 -68q-32 -32 -51 -72t-19 -77q0 -70 54 -121q25 -25 71.5 -48t120 -45t205.5 -54q36 -11 49 -13l49 -12l78 -20q198 -51 289 -90t155 -103q50 -47 77.5 -110t27.5 -136q0 -72 -31 -144.5t-88 -127.5
q-74 -76 -182.5 -114t-247.5 -38q-97 0 -182.5 19.5t-208.5 71.5q-80 32 -122 43.5t-79 11.5q-71 0 -120.5 -37.5t-65.5 -106.5h-35v646h35q21 -172 139 -312q71 -82 181.5 -152.5t231.5 -109.5t230 -39q97 0 177.5 32t125.5 89t45 129q0 76 -61 137q-28 27 -72.5 50
t-115 47t-193.5 57l-100 27q-234 63 -324 98q-101 37 -158.5 74t-99.5 94q-62 80 -62 176q0 116 69 208.5t193 144.5t275 52q228 0 473 -127q86 -43 117 -43q78 0 112 115z" />
    <glyph glyph-name="agrave" unicode="&#xe0;" horiz-adv-x="1792" 
d="M768 1098l-274 -623h555zM874 1425h37l562 -1222q27 -57 60.5 -94t75.5 -53.5t99 -16.5h37v-39h-811v39h106q79 0 115.5 21.5t36.5 66.5q0 28 -14.5 68t-63.5 145q-3 6 -9 20t-13 27l-23 51h-592l-45 -104q-22 -53 -22 -107q0 -46 25.5 -91t66.5 -68q27 -16 48.5 -21.5
t61.5 -7.5v-39h-569v39q62 7 98.5 22t81.5 50q106 82 207 309zM524 1747h412l194 -274h-43z" />
    <glyph glyph-name="aacute" unicode="&#xe1;" horiz-adv-x="1792" 
d="M768 1098l-274 -623h555zM874 1425h37l562 -1222q27 -57 60.5 -94t75.5 -53.5t99 -16.5h37v-39h-811v39h106q79 0 115.5 21.5t36.5 66.5q0 28 -14.5 68t-63.5 145q-3 6 -9 20t-13 27l-23 51h-592l-45 -104q-22 -53 -22 -107q0 -46 25.5 -91t66.5 -68q27 -16 48.5 -21.5
t61.5 -7.5v-39h-569v39q62 7 98.5 22t81.5 50q106 82 207 309zM733 1470l195 277h411l-563 -277h-43z" />
    <glyph glyph-name="acircumflex" unicode="&#xe2;" horiz-adv-x="1792" 
d="M768 1098l-274 -623h555zM874 1425h37l562 -1222q27 -57 60.5 -94t75.5 -53.5t99 -16.5h37v-39h-811v39h106q79 0 115.5 21.5t36.5 66.5q0 28 -14.5 68t-63.5 145q-3 6 -9 20t-13 27l-23 51h-592l-45 -104q-22 -53 -22 -107q0 -46 25.5 -91t66.5 -68q27 -16 48.5 -21.5
t61.5 -7.5v-39h-569v39q62 7 98.5 22t81.5 50q106 82 207 309zM770 1753h313l242 -278l-57 2l-344 159l-338 -155h-56z" />
    <glyph glyph-name="atilde" unicode="&#xe3;" horiz-adv-x="1792" 
d="M768 1098l-274 -623h555zM874 1425h37l562 -1222q27 -57 60.5 -94t75.5 -53.5t99 -16.5h37v-39h-811v39h106q79 0 115.5 21.5t36.5 66.5q0 28 -14.5 68t-63.5 145q-3 6 -9 20t-13 27l-23 51h-592l-45 -104q-22 -53 -22 -107q0 -46 25.5 -91t66.5 -68q27 -16 48.5 -21.5
t61.5 -7.5v-39h-569v39q62 7 98.5 22t81.5 50q106 82 207 309zM496 1491h-35q20 120 92.5 183t189.5 63q95 0 273 -64q140 -53 201 -53q54 0 86.5 26.5t48.5 84.5l37 -2q-7 -93 -48 -150q-34 -49 -97.5 -76.5t-133.5 -27.5q-46 0 -108 15.5t-166 51.5q-147 53 -195 53
q-49 0 -81.5 -23.5t-63.5 -80.5z" />
    <glyph glyph-name="adieresis" unicode="&#xe4;" horiz-adv-x="1792" 
d="M768 1098l-274 -623h555zM874 1425h37l562 -1222q27 -57 60.5 -94t75.5 -53.5t99 -16.5h37v-39h-811v39h106q79 0 115.5 21.5t36.5 66.5q0 28 -14.5 68t-63.5 145q-3 6 -9 20t-13 27l-23 51h-592l-45 -104q-22 -53 -22 -107q0 -46 25.5 -91t66.5 -68q27 -16 48.5 -21.5
t61.5 -7.5v-39h-569v39q62 7 98.5 22t81.5 50q106 82 207 309zM621 1733q30 0 51.5 -9t41 -28t29 -41t9.5 -51q0 -36 -17 -65t-46.5 -46.5t-65.5 -17.5q-53 0 -91 38t-38 91q0 52 37.5 90.5t89.5 38.5zM1243 1731q36 0 66 -16.5t47.5 -46t17.5 -64.5q0 -36 -17 -65.5
t-46.5 -46.5t-65.5 -17q-52 0 -89.5 38.5t-37.5 90.5q0 50 36.5 88.5t88.5 38.5z" />
    <glyph glyph-name="aring" unicode="&#xe5;" horiz-adv-x="1792" 
d="M768 1098l-274 -623h555zM874 1425h37l562 -1222q27 -57 60.5 -94t75.5 -53.5t99 -16.5h37v-39h-811v39h106q79 0 115.5 21.5t36.5 66.5q0 28 -14.5 68t-63.5 145q-3 6 -9 20t-13 27l-23 51h-592l-45 -104q-22 -53 -22 -107q0 -46 25.5 -91t66.5 -68q27 -16 48.5 -21.5
t61.5 -7.5v-39h-569v39q62 7 98.5 22t81.5 50q106 82 207 309zM898 1917q60 0 112 -29t81.5 -80t29.5 -112q0 -91 -65 -155t-154 -64q-59 0 -110 29.5t-81 80t-30 109.5q0 58 29.5 108.5t79.5 81.5t108 31zM904 1821q-52 0 -88.5 -36.5t-36.5 -88.5q0 -51 36 -88t87 -37
q52 0 88.5 36.5t36.5 88.5q0 50 -36.5 87.5t-86.5 37.5z" />
    <glyph glyph-name="ae" unicode="&#xe6;" horiz-adv-x="2347" 
d="M1004 1360l-498 -891h596v891h-98zM668 1397h1536v-535h-27q-38 137 -69 205.5t-85 132.5q-66 82 -167 121t-242 39h-219v-664h30q79 0 147.5 38.5t115.5 109.5q33 50 55.5 123t36.5 176h30v-914h-30q-17 122 -43.5 195.5t-71.5 128.5q-94 113 -252 113h-18v-627h182
q312 0 469 199q38 48 64.5 92t50 102.5t47.5 147.5h37v-580h-1434v39h37q129 0 191.5 62.5t62.5 191.5v143h-617l-18 -33q-76 -131 -76 -200q0 -152 211 -164v-39h-563v39q49 4 92 18t83 44t70.5 67t63.5 96l526 930q44 80 44 113q0 53 -95 53h-155v37z" />
    <glyph glyph-name="ccedilla" unicode="&#xe7;" horiz-adv-x="1749" 
d="M1593 492h35q-24 -89 -53 -148t-80 -123q-203 -250 -543 -250q-214 0 -399 99.5t-294 268t-109 363.5q0 116 43 230.5t125.5 214t191.5 170.5q165 108 381 108q72 0 136.5 -12.5t122 -40t118.5 -72.5q68 -47 100 -47q71 0 178 148h35l29 -672h-33q-17 73 -32.5 119
t-41.5 96q-69 141 -163 242t-205 154t-228 53q-140 0 -228 -74.5t-130.5 -232t-42.5 -400.5q0 -140 15 -248t46.5 -182.5t79.5 -124.5q59 -60 143.5 -91.5t184.5 -31.5q93 0 178.5 24t160 71.5t136.5 117.5q50 58 81 116.5t62 154.5zM676 -84v23q146 25 228 75
q127 -17 177 -47t50 -88q0 -62 -64 -98q-39 -22 -83 -31q-97 -20 -322 -20h-64v34h35q203 0 203 84q0 32 -32.5 50t-86.5 18h-41z" />
    <glyph glyph-name="egrave" unicode="&#xe8;" horiz-adv-x="1686" 
d="M68 1397h1486v-541h-30q-41 142 -73.5 212.5t-84.5 133.5q-63 75 -137 107q-123 51 -299 51h-275v-664h74q165 0 262 142q50 73 74 174q12 43 22 127h35v-916h-35q-12 74 -28.5 139.5t-37 106.5t-52.5 82q-90 111 -256 111h-58v-625h230q102 0 183.5 14.5t146.5 45
t122 79.5q98 83 152 207q31 71 65 192h37v-575h-1521l-2 37h38q254 0 254 256v813q0 130 -62 192t-192 62h-38v37zM471 1747h412l194 -274h-43z" />
    <glyph glyph-name="eacute" unicode="&#xe9;" horiz-adv-x="1686" 
d="M68 1397h1486v-541h-30q-41 142 -73.5 212.5t-84.5 133.5q-63 75 -137 107q-123 51 -299 51h-275v-664h74q165 0 262 142q50 73 74 174q12 43 22 127h35v-916h-35q-12 74 -28.5 139.5t-37 106.5t-52.5 82q-90 111 -256 111h-58v-625h230q102 0 183.5 14.5t146.5 45
t122 79.5q98 83 152 207q31 71 65 192h37v-575h-1521l-2 37h38q254 0 254 256v813q0 130 -62 192t-192 62h-38v37zM680 1470l195 277h411l-563 -277h-43z" />
    <glyph glyph-name="ecircumflex" unicode="&#xea;" horiz-adv-x="1686" 
d="M68 1397h1486v-541h-30q-41 142 -73.5 212.5t-84.5 133.5q-63 75 -137 107q-123 51 -299 51h-275v-664h74q165 0 262 142q50 73 74 174q12 43 22 127h35v-916h-35q-12 74 -28.5 139.5t-37 106.5t-52.5 82q-90 111 -256 111h-58v-625h230q102 0 183.5 14.5t146.5 45
t122 79.5q98 83 152 207q31 71 65 192h37v-575h-1521l-2 37h38q254 0 254 256v813q0 130 -62 192t-192 62h-38v37zM717 1753h313l242 -278l-57 2l-344 159l-338 -155h-56z" />
    <glyph glyph-name="edieresis" unicode="&#xeb;" horiz-adv-x="1686" 
d="M68 1397h1486v-541h-30q-41 142 -73.5 212.5t-84.5 133.5q-63 75 -137 107q-123 51 -299 51h-275v-664h74q165 0 262 142q50 73 74 174q12 43 22 127h35v-916h-35q-12 74 -28.5 139.5t-37 106.5t-52.5 82q-90 111 -256 111h-58v-625h230q102 0 183.5 14.5t146.5 45
t122 79.5q98 83 152 207q31 71 65 192h37v-575h-1521l-2 37h38q254 0 254 256v813q0 130 -62 192t-192 62h-38v37zM568 1733q30 0 51.5 -9t41 -28t29 -41t9.5 -51q0 -36 -17 -65t-46.5 -46.5t-65.5 -17.5q-53 0 -91 38t-38 91q0 52 37.5 90.5t89.5 38.5zM1190 1731
q36 0 66 -16.5t47.5 -46t17.5 -64.5q0 -36 -17 -65.5t-46.5 -46.5t-65.5 -17q-52 0 -89.5 38.5t-37.5 90.5q0 50 36.5 88.5t88.5 38.5z" />
    <glyph glyph-name="igrave" unicode="&#xec;" horiz-adv-x="1087" 
d="M117 39h39q129 0 191.5 62.5t62.5 191.5v106v90v129v519q-8 66 -24.5 105t-49.5 65q-60 53 -180 53h-39v37h880v-37h-39q-129 0 -191 -62t-62 -192v-813q0 -129 62.5 -191.5t190.5 -62.5h39v-39h-880v39zM152 1747h412l194 -274h-43z" />
    <glyph glyph-name="iacute" unicode="&#xed;" horiz-adv-x="1087" 
d="M117 39h39q129 0 191.5 62.5t62.5 191.5v106v90v129v519q-8 66 -24.5 105t-49.5 65q-60 53 -180 53h-39v37h880v-37h-39q-129 0 -191 -62t-62 -192v-813q0 -129 62.5 -191.5t190.5 -62.5h39v-39h-880v39zM381 1470l195 277h411l-563 -277h-43z" />
    <glyph glyph-name="icircumflex" unicode="&#xee;" horiz-adv-x="1087" 
d="M117 39h39q129 0 191.5 62.5t62.5 191.5v106v90v129v519q-8 66 -24.5 105t-49.5 65q-60 53 -180 53h-39v37h880v-37h-39q-129 0 -191 -62t-62 -192v-813q0 -129 62.5 -191.5t190.5 -62.5h39v-39h-880v39zM418 1753h313l242 -278l-57 2l-344 159l-338 -155h-56z" />
    <glyph glyph-name="idieresis" unicode="&#xef;" horiz-adv-x="1087" 
d="M117 39h39q129 0 191.5 62.5t62.5 191.5v106v90v129v519q-8 66 -24.5 105t-49.5 65q-60 53 -180 53h-39v37h880v-37h-39q-129 0 -191 -62t-62 -192v-813q0 -129 62.5 -191.5t190.5 -62.5h39v-39h-880v39zM269 1733q30 0 51.5 -9t41 -28t29 -41t9.5 -51q0 -36 -17 -65
t-46.5 -46.5t-65.5 -17.5q-53 0 -91 38t-38 91q0 52 37.5 90.5t89.5 38.5zM891 1731q36 0 66 -16.5t47.5 -46t17.5 -64.5q0 -36 -17 -65.5t-46.5 -46.5t-65.5 -17q-52 0 -89.5 38.5t-37.5 90.5q0 50 36.5 88.5t88.5 38.5z" />
    <glyph glyph-name="eth" unicode="&#xf0;" horiz-adv-x="2028" 
d="M668 1364v-645h506v-37h-506v-647h286q157 0 254.5 32t167.5 107q168 177 168 522q0 178 -44.5 311.5t-131.5 219.5q-75 73 -177.5 105t-270.5 32h-252zM68 1401h923q161 0 308.5 -34.5t248.5 -96.5q102 -64 180 -157.5t120 -207.5t42 -229q0 -143 -60.5 -267
t-173 -216.5t-266 -142.5t-329.5 -50h-993v37h59q120 0 183 59.5t63 173.5v412h-295v37h295v407q0 122 -67.5 180t-209.5 58h-28v37z" />
    <glyph glyph-name="ntilde" unicode="&#xf1;" horiz-adv-x="2005" 
d="M84 1397h561l971 -1006v602q0 110 -37.5 192.5t-108.5 125.5q-38 24 -76.5 34t-107.5 15v37h692v-37h-14q-151 0 -230 -96t-79 -279v-999h-33l-1206 1239v-830q0 -121 29 -193.5t94 -113.5q53 -32 129 -41q42 -7 120 -10v-37h-729v37q112 6 182.5 39.5t104 99.5t33.5 164
v790q0 73 -32.5 124t-94.5 78.5t-150 27.5h-18v37zM603 1491h-35q20 120 92.5 183t189.5 63q95 0 273 -64q140 -53 201 -53q54 0 86.5 26.5t48.5 84.5l37 -2q-7 -93 -48 -150q-34 -49 -97.5 -76.5t-133.5 -27.5q-46 0 -108 15.5t-166 51.5q-147 53 -195 53
q-49 0 -81.5 -23.5t-63.5 -80.5z" />
    <glyph glyph-name="ograve" unicode="&#xf2;" horiz-adv-x="1962" 
d="M975 1425q196 0 358.5 -62.5t282.5 -182.5q101 -102 156 -227.5t55 -256.5q0 -197 -111.5 -363t-303 -263t-419.5 -97q-174 0 -327.5 55t-270.5 155.5t-182.5 234.5t-65.5 280q0 194 113 362t303 266.5t412 98.5zM1001 1389q-91 0 -171.5 -31.5t-135.5 -89.5
q-60 -63 -102.5 -149.5t-64 -193t-21.5 -229.5q0 -154 34 -280.5t98 -218t153 -139.5t198 -48q148 0 257.5 84.5t168 241.5t58.5 373q0 140 -32 262t-92 212.5t-145 143.5q-42 28 -97 45t-106 17zM610 1747h412l194 -274h-43z" />
    <glyph glyph-name="oacute" unicode="&#xf3;" horiz-adv-x="1962" 
d="M975 1425q196 0 358.5 -62.5t282.5 -182.5q101 -102 156 -227.5t55 -256.5q0 -197 -111.5 -363t-303 -263t-419.5 -97q-174 0 -327.5 55t-270.5 155.5t-182.5 234.5t-65.5 280q0 194 113 362t303 266.5t412 98.5zM1001 1389q-91 0 -171.5 -31.5t-135.5 -89.5
q-60 -63 -102.5 -149.5t-64 -193t-21.5 -229.5q0 -154 34 -280.5t98 -218t153 -139.5t198 -48q148 0 257.5 84.5t168 241.5t58.5 373q0 140 -32 262t-92 212.5t-145 143.5q-42 28 -97 45t-106 17zM819 1470l195 277h411l-563 -277h-43z" />
    <glyph glyph-name="ocircumflex" unicode="&#xf4;" horiz-adv-x="1962" 
d="M975 1425q196 0 358.5 -62.5t282.5 -182.5q101 -102 156 -227.5t55 -256.5q0 -197 -111.5 -363t-303 -263t-419.5 -97q-174 0 -327.5 55t-270.5 155.5t-182.5 234.5t-65.5 280q0 194 113 362t303 266.5t412 98.5zM1001 1389q-91 0 -171.5 -31.5t-135.5 -89.5
q-60 -63 -102.5 -149.5t-64 -193t-21.5 -229.5q0 -154 34 -280.5t98 -218t153 -139.5t198 -48q148 0 257.5 84.5t168 241.5t58.5 373q0 140 -32 262t-92 212.5t-145 143.5q-42 28 -97 45t-106 17zM856 1753h313l242 -278l-57 2l-344 159l-338 -155h-56z" />
    <glyph glyph-name="otilde" unicode="&#xf5;" horiz-adv-x="1962" 
d="M975 1425q196 0 358.5 -62.5t282.5 -182.5q101 -102 156 -227.5t55 -256.5q0 -197 -111.5 -363t-303 -263t-419.5 -97q-174 0 -327.5 55t-270.5 155.5t-182.5 234.5t-65.5 280q0 194 113 362t303 266.5t412 98.5zM1001 1389q-91 0 -171.5 -31.5t-135.5 -89.5
q-60 -63 -102.5 -149.5t-64 -193t-21.5 -229.5q0 -154 34 -280.5t98 -218t153 -139.5t198 -48q148 0 257.5 84.5t168 241.5t58.5 373q0 140 -32 262t-92 212.5t-145 143.5q-42 28 -97 45t-106 17zM582 1491h-35q20 120 92.5 183t189.5 63q95 0 273 -64q140 -53 201 -53
q54 0 86.5 26.5t48.5 84.5l37 -2q-7 -93 -48 -150q-34 -49 -97.5 -76.5t-133.5 -27.5q-46 0 -108 15.5t-166 51.5q-147 53 -195 53q-49 0 -81.5 -23.5t-63.5 -80.5z" />
    <glyph glyph-name="odieresis" unicode="&#xf6;" horiz-adv-x="1962" 
d="M975 1425q196 0 358.5 -62.5t282.5 -182.5q101 -102 156 -227.5t55 -256.5q0 -197 -111.5 -363t-303 -263t-419.5 -97q-174 0 -327.5 55t-270.5 155.5t-182.5 234.5t-65.5 280q0 194 113 362t303 266.5t412 98.5zM1001 1389q-91 0 -171.5 -31.5t-135.5 -89.5
q-60 -63 -102.5 -149.5t-64 -193t-21.5 -229.5q0 -154 34 -280.5t98 -218t153 -139.5t198 -48q148 0 257.5 84.5t168 241.5t58.5 373q0 140 -32 262t-92 212.5t-145 143.5q-42 28 -97 45t-106 17zM707 1733q30 0 51.5 -9t41 -28t29 -41t9.5 -51q0 -36 -17 -65t-46.5 -46.5
t-65.5 -17.5q-53 0 -91 38t-38 91q0 52 37.5 90.5t89.5 38.5zM1329 1731q36 0 66 -16.5t47.5 -46t17.5 -64.5q0 -36 -17 -65.5t-46.5 -46.5t-65.5 -17q-52 0 -89.5 38.5t-37.5 90.5q0 50 36.5 88.5t88.5 38.5z" />
    <glyph glyph-name="divide" unicode="&#xf7;" horiz-adv-x="1124" 
d="M20 483v113h1078v-113h-1078zM434 819q0 48 33.5 81.5t81.5 33.5q30 0 56.5 -15t42.5 -42t16 -58q0 -47 -34.5 -80.5t-80.5 -33.5q-47 0 -81 34t-34 80zM434 260q0 48 33.5 81.5t81.5 33.5q30 0 56.5 -15t42.5 -42t16 -58q0 -47 -34 -81t-81 -34q-48 0 -81.5 34.5
t-33.5 80.5z" />
    <glyph glyph-name="oslash" unicode="&#xf8;" 
d="M1567 1266l157 159l25 -22l-156 -160q77 -62 120 -115.5t79 -128.5q76 -152 76 -299q0 -128 -55 -253t-154 -224q-120 -118 -282.5 -180.5t-350.5 -62.5q-147 0 -264.5 36t-251.5 123l-158 -157l-24 20l155 158q-87 75 -133 132t-84 136q-61 128 -61 272
q0 198 111.5 365.5t304 263.5t423.5 96q97 0 182.5 -16t168.5 -51t172 -92zM1448 1096l-809 -826q136 -256 395 -256q182 0 299 123q81 84 115 178q68 180 68 422q0 98 -13 169t-55 190zM625 303l809 825q-46 92 -105 148q-122 119 -293 119q-142 0 -253 -87t-170.5 -247
t-59.5 -371q0 -111 16.5 -200t55.5 -187z" />
    <glyph glyph-name="ugrave" unicode="&#xf9;" 
d="M84 1397h969v-37h-111q-128 0 -191 -62.5t-63 -191.5v-709q0 -121 56 -208t161 -134t250 -47q127 0 237 36.5t175 100.5q119 122 119 342v500q0 240 -140 326q-40 25 -84 35t-127 12v37h678v-37q-63 -5 -100 -17t-76 -40q-57 -43 -87 -114.5t-30 -168.5v-557
q0 -222 -121 -340q-67 -64 -143 -92q-160 -60 -381 -60q-163 0 -296 32t-220 91q-164 113 -164 324v688q0 254 -254 254h-57v37zM653 1747h412l194 -274h-43z" />
    <glyph glyph-name="uacute" unicode="&#xfa;" 
d="M84 1397h969v-37h-111q-128 0 -191 -62.5t-63 -191.5v-709q0 -121 56 -208t161 -134t250 -47q127 0 237 36.5t175 100.5q119 122 119 342v500q0 240 -140 326q-40 25 -84 35t-127 12v37h678v-37q-63 -5 -100 -17t-76 -40q-57 -43 -87 -114.5t-30 -168.5v-557
q0 -222 -121 -340q-67 -64 -143 -92q-160 -60 -381 -60q-163 0 -296 32t-220 91q-164 113 -164 324v688q0 254 -254 254h-57v37zM862 1470l195 277h411l-563 -277h-43z" />
    <glyph glyph-name="ucircumflex" unicode="&#xfb;" 
d="M84 1397h969v-37h-111q-128 0 -191 -62.5t-63 -191.5v-709q0 -121 56 -208t161 -134t250 -47q127 0 237 36.5t175 100.5q119 122 119 342v500q0 240 -140 326q-40 25 -84 35t-127 12v37h678v-37q-63 -5 -100 -17t-76 -40q-57 -43 -87 -114.5t-30 -168.5v-557
q0 -222 -121 -340q-67 -64 -143 -92q-160 -60 -381 -60q-163 0 -296 32t-220 91q-164 113 -164 324v688q0 254 -254 254h-57v37zM899 1753h313l242 -278l-57 2l-344 159l-338 -155h-56z" />
    <glyph glyph-name="udieresis" unicode="&#xfc;" 
d="M84 1397h969v-37h-111q-128 0 -191 -62.5t-63 -191.5v-709q0 -121 56 -208t161 -134t250 -47q127 0 237 36.5t175 100.5q119 122 119 342v500q0 240 -140 326q-40 25 -84 35t-127 12v37h678v-37q-63 -5 -100 -17t-76 -40q-57 -43 -87 -114.5t-30 -168.5v-557
q0 -222 -121 -340q-67 -64 -143 -92q-160 -60 -381 -60q-163 0 -296 32t-220 91q-164 113 -164 324v688q0 254 -254 254h-57v37zM750 1733q30 0 51.5 -9t41 -28t29 -41t9.5 -51q0 -36 -17 -65t-46.5 -46.5t-65.5 -17.5q-53 0 -91 38t-38 91q0 52 37.5 90.5t89.5 38.5z
M1372 1731q36 0 66 -16.5t47.5 -46t17.5 -64.5q0 -36 -17 -65.5t-46.5 -46.5t-65.5 -17q-52 0 -89.5 38.5t-37.5 90.5q0 50 36.5 88.5t88.5 38.5z" />
    <glyph glyph-name="yacute" unicode="&#xfd;" 
d="M100 1397h895v-35h-104q-62 0 -96.5 -23t-34.5 -65q0 -21 10 -39.5t59 -89.5l347 -479l311 409q63 80 63 137q0 66 -55 107t-143 41h-92v37h718v-35q-71 -8 -128 -26.5t-105 -48t-99.5 -79.5t-99.5 -112l-352 -465v-338q0 -128 63 -191t191 -63h94v-39h-995v39h98
q129 0 191.5 62.5t62.5 191.5v301l-418 571q-80 110 -157 152.5t-199 42.5h-25v37zM862 1470l195 277h411l-563 -277h-43z" />
    <glyph glyph-name="thorn" unicode="&#xfe;" horiz-adv-x="1729" 
d="M645 1047v-697h287q397 0 397 348q0 179 -98 264t-307 85h-279zM918 1399v-37h-41q-89 0 -139.5 -15t-71.5 -49q-13 -23 -17 -59t-4 -123v-33h273q71 0 141.5 -3t126 -9.5t105.5 -15.5t85 -21q283 -91 283 -336q0 -115 -70 -203t-202 -135t-304 -47h-438v-18
q0 -129 62.5 -193.5t187.5 -64.5h74v-37h-922v37h39q127 0 195.5 57.5t68.5 165.5v832q0 97 -26 156t-83.5 86.5t-148.5 27.5h-43v37h869z" />
    <glyph glyph-name="ydieresis" unicode="&#xff;" 
d="M100 1397h895v-35h-104q-62 0 -96.5 -23t-34.5 -65q0 -21 10 -39.5t59 -89.5l347 -479l311 409q63 80 63 137q0 66 -55 107t-143 41h-92v37h718v-35q-71 -8 -128 -26.5t-105 -48t-99.5 -79.5t-99.5 -112l-352 -465v-338q0 -128 63 -191t191 -63h94v-39h-995v39h98
q129 0 191.5 62.5t62.5 191.5v301l-418 571q-80 110 -157 152.5t-199 42.5h-25v37zM750 1733q30 0 51.5 -9t41 -28t29 -41t9.5 -51q0 -36 -17 -65t-46.5 -46.5t-65.5 -17.5q-53 0 -91 38t-38 91q0 52 37.5 90.5t89.5 38.5zM1372 1731q36 0 66 -16.5t47.5 -46t17.5 -64.5
q0 -36 -17 -65.5t-46.5 -46.5t-65.5 -17q-52 0 -89.5 38.5t-37.5 90.5q0 50 36.5 88.5t88.5 38.5z" />
    <glyph glyph-name="dotlessi" unicode="&#x131;" horiz-adv-x="1087" 
d="M117 39h39q129 0 191.5 62.5t62.5 191.5v106v90v129v519q-8 66 -24.5 105t-49.5 65q-60 53 -180 53h-39v37h880v-37h-39q-129 0 -191 -62t-62 -192v-813q0 -129 62.5 -191.5t190.5 -62.5h39v-39h-880v39z" />
    <glyph glyph-name="OE" unicode="&#x152;" horiz-adv-x="2347" 
d="M449 786v-172q0 -123 24 -244t64 -186q49 -84 126.5 -128t176.5 -44q88 0 153 34.5t98 100t33 158.5v782q0 93 -33 159.5t-97 101t-152 34.5q-127 0 -215 -69t-133 -202t-45 -325zM2267 0h-1110q-42 0 -162 -12q-103 -11 -157 -11q-83 0 -169 17t-161 48t-139 77
q-273 194 -273 575q0 137 36.5 252t107.5 205t176 154q91 55 198.5 84.5t221.5 29.5q23 0 143 -10q111 -12 151 -12h1096v-537h-28q-47 181 -99 264q-84 145 -233 203q-92 37 -277 37h-172v-668h43q146 0 240 131q46 68 74 162q14 59 28 152h33v-912h-33q-10 73 -20.5 117
t-24.5 76q-90 242 -315 242h-25v-629h123q364 0 518 188q60 72 95 142.5t79 212.5h35v-578z" />
    <glyph glyph-name="oe" unicode="&#x153;" horiz-adv-x="2347" 
d="M449 786v-172q0 -123 24 -244t64 -186q49 -84 126.5 -128t176.5 -44q88 0 153 34.5t98 100t33 158.5v782q0 93 -33 159.5t-97 101t-152 34.5q-127 0 -215 -69t-133 -202t-45 -325zM2267 0h-1110q-42 0 -162 -12q-103 -11 -157 -11q-83 0 -169 17t-161 48t-139 77
q-273 194 -273 575q0 137 36.5 252t107.5 205t176 154q91 55 198.5 84.5t221.5 29.5q23 0 143 -10q111 -12 151 -12h1096v-537h-28q-47 181 -99 264q-84 145 -233 203q-92 37 -277 37h-172v-668h43q146 0 240 131q46 68 74 162q14 59 28 152h33v-912h-33q-10 73 -20.5 117
t-24.5 76q-90 242 -315 242h-25v-629h123q364 0 518 188q60 72 95 142.5t79 212.5h35v-578z" />
    <glyph glyph-name="Scaron" unicode="&#x160;" horiz-adv-x="1599" 
d="M1386 1370h35v-479h-35q-63 173 -143 270q-58 68 -145.5 119.5t-196 81t-219.5 29.5q-83 0 -148 -23t-110 -68q-32 -32 -51 -72t-19 -77q0 -70 54 -121q25 -25 71.5 -48t120 -45t205.5 -54q36 -11 49 -13l49 -12l78 -20q198 -51 289 -90t155 -103q50 -47 77.5 -110
t27.5 -136q0 -72 -31 -144.5t-88 -127.5q-74 -76 -182.5 -114t-247.5 -38q-97 0 -182.5 19.5t-208.5 71.5q-80 32 -122 43.5t-79 11.5q-71 0 -120.5 -37.5t-65.5 -106.5h-35v646h35q21 -172 139 -312q71 -82 181.5 -152.5t231.5 -109.5t230 -39q97 0 177.5 32t125.5 89
t45 129q0 76 -61 137q-28 27 -72.5 50t-115 47t-193.5 57l-100 27q-234 63 -324 98q-101 37 -158.5 74t-99.5 94q-62 80 -62 176q0 116 69 208.5t193 144.5t275 52q228 0 473 -127q86 -43 117 -43q78 0 112 115zM443 1751h55l344 -164l338 160h59l-237 -274h-316z" />
    <glyph glyph-name="scaron" unicode="&#x161;" horiz-adv-x="1599" 
d="M1386 1370h35v-479h-35q-63 173 -143 270q-58 68 -145.5 119.5t-196 81t-219.5 29.5q-83 0 -148 -23t-110 -68q-32 -32 -51 -72t-19 -77q0 -70 54 -121q25 -25 71.5 -48t120 -45t205.5 -54q36 -11 49 -13l49 -12l78 -20q198 -51 289 -90t155 -103q50 -47 77.5 -110
t27.5 -136q0 -72 -31 -144.5t-88 -127.5q-74 -76 -182.5 -114t-247.5 -38q-97 0 -182.5 19.5t-208.5 71.5q-80 32 -122 43.5t-79 11.5q-71 0 -120.5 -37.5t-65.5 -106.5h-35v646h35q21 -172 139 -312q71 -82 181.5 -152.5t231.5 -109.5t230 -39q97 0 177.5 32t125.5 89
t45 129q0 76 -61 137q-28 27 -72.5 50t-115 47t-193.5 57l-100 27q-234 63 -324 98q-101 37 -158.5 74t-99.5 94q-62 80 -62 176q0 116 69 208.5t193 144.5t275 52q228 0 473 -127q86 -43 117 -43q78 0 112 115zM443 1751h55l344 -164l338 160h59l-237 -274h-316z" />
    <glyph glyph-name="Ydieresis" unicode="&#x178;" 
d="M100 1397h895v-35h-104q-62 0 -96.5 -23t-34.5 -65q0 -21 10 -39.5t59 -89.5l347 -479l311 409q63 80 63 137q0 66 -55 107t-143 41h-92v37h718v-35q-71 -8 -128 -26.5t-105 -48t-99.5 -79.5t-99.5 -112l-352 -465v-338q0 -128 63 -191t191 -63h94v-39h-995v39h98
q129 0 191.5 62.5t62.5 191.5v301l-418 571q-80 110 -157 152.5t-199 42.5h-25v37zM750 1733q30 0 51.5 -9t41 -28t29 -41t9.5 -51q0 -36 -17 -65t-46.5 -46.5t-65.5 -17.5q-53 0 -91 38t-38 91q0 52 37.5 90.5t89.5 38.5zM1372 1731q36 0 66 -16.5t47.5 -46t17.5 -64.5
q0 -36 -17 -65.5t-46.5 -46.5t-65.5 -17q-52 0 -89.5 38.5t-37.5 90.5q0 50 36.5 88.5t88.5 38.5z" />
    <glyph glyph-name="florin" unicode="&#x192;" horiz-adv-x="1024" 
d="M711 784l-101 -499q-34 -167 -75 -324q-27 -96 -64.5 -171t-85 -123t-117.5 -85q-51 -24 -112 -24q-66 0 -111 34t-45 82q0 42 29.5 70.5t72.5 28.5q41 0 67 -21t26 -57q0 -17 -5 -25l-8 -28q0 -9 10 -16t19 -7q35 0 55.5 34.5t20.5 92.5q0 23 -2 59q0 13 -0.5 21.5
t-1.5 17.5q-4 62 -4 90q0 72 7.5 128t32.5 186l109 536h-141l24 121q71 0 113.5 18.5t73.5 66.5t65 143q49 131 121 193.5t178 62.5q74 0 118 -35.5t44 -93.5q0 -50 -30 -82.5t-76 -32.5q-36 0 -62.5 24.5t-26.5 57.5q0 20 27 78q4 12 4 14q0 10 -7 16t-19 6
q-42 0 -68.5 -39t-26.5 -100q0 -55 4 -86q2 -33 3.5 -57.5t1.5 -30.5q0 -45 -13 -123h154l-25 -121h-153z" />
    <glyph glyph-name="circumflex" unicode="&#x2c6;" horiz-adv-x="682" 
d="M215 1753h313l242 -278l-57 2l-344 159l-338 -155h-56z" />
    <glyph glyph-name="caron" unicode="&#x2c7;" horiz-adv-x="682" 
d="M-16 1751h55l344 -164l338 160h59l-237 -274h-316z" />
    <glyph glyph-name="macron" unicode="&#x2c9;" horiz-adv-x="682" 
d="M23 1602h636v-129h-636v129z" />
    <glyph glyph-name="breve" unicode="&#x2d8;" horiz-adv-x="682" 
d="M27 1741h26q39 -48 85 -77.5t105.5 -42.5t143.5 -13q117 0 186.5 28.5t126.5 98.5h27q-15 -51 -30 -81t-40 -59q-47 -60 -120.5 -92.5t-161.5 -32.5q-132 0 -223.5 70.5t-124.5 200.5z" />
    <glyph glyph-name="dotaccent" unicode="&#x2d9;" horiz-adv-x="682" 
d="M373 1733q30 0 51.5 -9t41 -28t29 -41t9.5 -51q0 -53 -38 -91t-89 -38q-53 0 -91 38t-38 91t37 91t88 38z" />
    <glyph glyph-name="ring" unicode="&#x2da;" horiz-adv-x="682" 
d="M373 1917q60 0 112 -29t81.5 -80t29.5 -112q0 -91 -65 -155t-154 -64q-59 0 -110 29.5t-81 80t-30 109.5q0 58 29.5 108.5t79.5 81.5t108 31zM379 1821q-52 0 -88.5 -36.5t-36.5 -88.5q0 -51 36 -88t87 -37q52 0 88.5 36.5t36.5 88.5q0 50 -36.5 87.5t-86.5 37.5z" />
    <glyph glyph-name="ogonek" unicode="&#x2db;" horiz-adv-x="682" 
d="M227 16h54q-27 -50 -27 -100q0 -90 63 -139q69 -56 150 -56q52 0 119 23l22 -31q-87 -48 -129.5 -61.5t-101.5 -13.5q-104 0 -167 50.5t-63 135.5q0 53 21.5 105t58.5 87z" />
    <glyph glyph-name="tilde" unicode="&#x2dc;" horiz-adv-x="682" 
d="M-59 1491h-35q20 120 92.5 183t189.5 63q95 0 273 -64q140 -53 201 -53q54 0 86.5 26.5t48.5 84.5l37 -2q-7 -93 -48 -150q-34 -49 -97.5 -76.5t-133.5 -27.5q-46 0 -108 15.5t-166 51.5q-147 53 -195 53q-49 0 -81.5 -23.5t-63.5 -80.5z" />
    <glyph glyph-name="hungarumlaut" unicode="&#x2dd;" horiz-adv-x="682" 
d="M-227 1470l194 277h412l-563 -277h-43zM305 1470l195 277h409l-561 -277h-43z" />
    <glyph glyph-name="pi" unicode="&#x3c0;" horiz-adv-x="1124" 
d="M686 821h-231q-17 -201 -33 -329.5t-31 -221t-31 -168.5q-13 -59 -38 -92.5t-74 -46.5q-40 -10 -79.5 16t-47.5 62q-6 27 -3 45.5t11 34.5t18 29t21 26q3 4 34.5 41t47.5 67.5t20 67.5l60 469h-97q-41 0 -78 -19.5t-57 -45.5l-43 -64h-35q14 39 35 93.5t58 105.5
q29 43 78 74.5t114 31.5h764v-176h-258q-25 -239 -25 -481q0 -44 15 -86t37 -64q28 -26 68.5 -33.5t82.5 25.5q23 18 33.5 41t13.5 44l6 42h43q-1 -83 -25 -149.5t-57 -107t-65 -58.5q-36 -22 -84 -26.5t-88 22.5q-66 48 -100 151q-19 60 -21.5 158.5t6.5 192.5z" />
    <glyph glyph-name="endash" unicode="&#x2013;" horiz-adv-x="1024" 
d="M-23 545h1070v-62h-1070v62z" />
    <glyph glyph-name="emdash" unicode="&#x2014;" horiz-adv-x="2093" 
d="M-23 545h2137v-62h-2137v62z" />
    <glyph glyph-name="quoteleft" unicode="&#x2018;" horiz-adv-x="831" 
d="M561 1423l21 -32q-170 -86 -170 -174q0 -18 9.5 -29t43.5 -29q9 -4 31 -14q41 -25 59 -55t18 -76q0 -65 -43 -109.5t-106 -44.5q-72 0 -116 53.5t-44 143.5q0 76 30 143t87 119q36 34 72.5 56t107.5 48z" />
    <glyph glyph-name="quoteright" unicode="&#x2019;" horiz-adv-x="831" 
d="M272 858l-20 31q172 87 172 172q0 20 -15 35.5t-49 29.5q-54 29 -77 61t-23 83q0 62 43.5 105.5t106.5 43.5q46 0 83 -25t57.5 -68t20.5 -101q0 -153 -120 -264q-36 -35 -71 -55.5t-108 -47.5z" />
    <glyph glyph-name="quotesinglbase" unicode="&#x201a;" horiz-adv-x="831" 
d="M276 -272l-18 32q168 91 168 170q0 35 -61 66q-58 30 -80.5 61.5t-22.5 77.5q0 64 45 110t109 46q70 0 113.5 -56.5t43.5 -146.5q0 -148 -112 -254q-38 -35 -75.5 -57t-109.5 -49z" />
    <glyph glyph-name="quotedblleft" unicode="&#x201c;" horiz-adv-x="1217" 
d="M944 1423l23 -32q-78 -37 -124 -84.5t-46 -89.5q0 -30 57 -58q56 -28 80 -61t24 -82q0 -66 -42.5 -110t-106.5 -44q-71 0 -115.5 55.5t-44.5 143.5q0 81 35 152.5t103 126t157 83.5zM561 1423l23 -32q-78 -37 -124 -84.5t-46 -89.5q0 -30 57 -58q56 -28 80 -61t24 -82
q0 -66 -42.5 -110t-106.5 -44q-71 0 -115.5 55.5t-44.5 143.5q0 81 35 152.5t103 126t157 83.5z" />
    <glyph glyph-name="quotedblright" unicode="&#x201d;" horiz-adv-x="1217" 
d="M659 858l-20 33q170 90 170 170q0 34 -64 67q-57 30 -79.5 60t-22.5 78q0 64 45.5 109.5t108.5 45.5q70 0 113.5 -56t43.5 -146q0 -148 -112 -254q-38 -35 -74.5 -56.5t-108.5 -50.5zM264 858l-20 33q170 91 170 170q0 19 -14 33.5t-50 33.5q-55 28 -78.5 59.5
t-23.5 78.5q0 65 45 110t108 45q71 0 114.5 -56t43.5 -146q0 -71 -28.5 -136t-84.5 -118q-65 -60 -182 -107z" />
    <glyph glyph-name="quotedblbase" unicode="&#x201e;" horiz-adv-x="1217" 
d="M662 -272l-21 30q170 93 170 172q0 19 -16 35.5t-47 30.5q-56 29 -79.5 60t-23.5 79q0 65 45.5 109.5t108.5 44.5q71 0 115 -55t44 -146q0 -148 -112 -254q-24 -23 -48 -39.5t-56.5 -32.5t-79.5 -34zM276 -272l-20 32q170 92 170 170q0 20 -14 35t-50 31q-56 31 -79 61.5
t-23 77.5q0 64 45 110t109 46q70 0 113.5 -56.5t43.5 -146.5q0 -147 -112 -254q-38 -35 -76 -57t-107 -49z" />
    <glyph glyph-name="dagger" unicode="&#x2020;" horiz-adv-x="934" 
d="M385 -346v1212h-328v160h328v406h147v-406h330v-160h-330v-1212h-147z" />
    <glyph glyph-name="daggerdbl" unicode="&#x2021;" horiz-adv-x="934" 
d="M387 -346v370h-330v161h330v725h-330v161h330v375h147v-375h331v-161h-331v-725h331v-161h-331v-370h-147z" />
    <glyph glyph-name="bullet" unicode="&#x2022;" horiz-adv-x="831" 
d="M414 893q71 0 119.5 -47.5t48.5 -118.5q0 -68 -49 -116t-117 -48q-66 0 -115 49t-49 115q0 44 22 82.5t59 61t81 22.5z" />
    <glyph glyph-name="ellipsis" unicode="&#x2026;" horiz-adv-x="2499" 
d="M414 303q70 0 119 -47t49 -117q0 -68 -49 -116t-115 -48t-115 49t-49 115q0 65 47.5 114.5t112.5 49.5zM1247 303q69 0 117.5 -47.5t48.5 -116.5q0 -68 -49 -116t-115 -48t-115 49t-49 115q0 65 48.5 114.5t113.5 49.5zM2079 303q71 0 118.5 -47.5t47.5 -116.5
q0 -68 -49 -116t-115 -48t-115 49t-49 115q0 65 48.5 114.5t113.5 49.5z" />
    <glyph glyph-name="perthousand" unicode="&#x2030;" horiz-adv-x="1679" 
d="M262 -54l493 1545h108l-493 -1545h-108zM30 1099q0 199 65.5 289.5t167.5 90.5q105 0 171.5 -91t66.5 -297q0 -204 -65 -293.5t-169 -89.5q-103 0 -170 92.5t-67 298.5zM152 1091q0 -150 32 -204t88 -54q47 0 74 47q34 62 34 213t-32 206.5t-84 55.5q-50 0 -77 -49
q-35 -63 -35 -215zM625 336q0 200 65.5 290t167.5 90q105 0 171.5 -91t66.5 -297q0 -204 -65 -293t-169 -89q-103 0 -170 92.5t-67 297.5zM747 328q0 -150 31.5 -204t88.5 -54q47 0 77.5 54.5t30.5 206.5q0 151 -32 206t-85 55q-49 0 -76 -48q-35 -64 -35 -216zM1178 336
q0 200 65.5 290t167.5 90q105 0 171.5 -91t66.5 -297q0 -204 -65 -293t-169 -89q-103 0 -170 92.5t-67 297.5zM1300 328q0 -150 32 -204t88 -54q47 0 77.5 54.5t30.5 206.5q0 151 -32 206t-84 55q-50 0 -77 -48q-35 -64 -35 -216z" />
    <glyph glyph-name="guilsinglleft" unicode="&#x2039;" horiz-adv-x="575" 
d="M299 1229h252l-254 -527l252 -528h-248l-258 526z" />
    <glyph glyph-name="guilsinglright" unicode="&#x203a;" horiz-adv-x="575" 
d="M41 1229h254l252 -529l-254 -526h-252l254 528z" />
    <glyph glyph-name="Euro" unicode="&#x20ac;" horiz-adv-x="1323" 
d="M154 592h-107l10 49h93v45q0 45 2 66h-105l10 49h99q45 288 200.5 454t358.5 166q100 0 154 -24t153 -101q32 -22 45 -22q12 0 22.5 24.5t30.5 98.5h35l21 -467h-33q-47 207 -163 330.5t-247 123.5q-123 0 -184 -144t-68 -439h584l-10 -49h-574v-111h557l-10 -49h-545
q12 -300 82.5 -442t231.5 -142q131 0 228.5 91t141.5 261h35q-44 -192 -161.5 -290.5t-276.5 -98.5q-223 0 -400 172.5t-210 448.5z" />
    <glyph glyph-name="trademark" unicode="&#x2122;" horiz-adv-x="2007" 
d="M51 1356h729l21 -201h-33q-13 79 -56 110t-139 31h-73v-579q0 -55 7.5 -82.5t28.5 -37.5t68 -13v-35h-375v35q46 5 67 15t27.5 34t6.5 82v581h-76q-93 0 -134 -30.5t-57 -110.5h-32zM1157 1356l273 -572l264 572h278v-37q-51 -2 -72.5 -11t-28.5 -35t-7 -89v-467
q0 -42 4 -68.5t14.5 -39t30.5 -17.5t59 -8v-35h-397v35q52 2 76.5 12t33.5 36.5t9 82.5v491h-4l-301 -657h-33l-305 649h-4v-481q0 -84 18 -108.5t76 -24.5h37v-35h-308v35q51 0 74 9t31 37t8 85v467q0 67 -7.5 93.5t-31 35t-74.5 8.5v37h287z" />
    <glyph glyph-name="Omega" unicode="&#x2126;" horiz-adv-x="1573" 
d="M641 311l33 -311h-604v332h30q20 -78 45.5 -101.5t90.5 -23.5h323l-4 57q-89 27 -145.5 53.5t-106.5 68.5t-90 101q-69 103 -90.5 212.5t-4 212t61.5 180.5q52 95 106.5 140t127.5 87q69 41 169.5 65.5t204.5 24.5q105 0 205.5 -24.5t169.5 -65.5q73 -42 127 -86
t107 -141q44 -78 61.5 -180.5t-4 -212t-90.5 -212.5q-60 -87 -137.5 -135.5t-204.5 -87.5l-4 -57h323q65 0 91.5 24.5t44.5 100.5h30v-332h-604l33 311q25 11 55.5 24.5t61.5 35.5t64 65.5t61 108.5q37 86 47.5 215.5t-22.5 261t-118 215.5q-106 106 -297 106t-296 -106
q-85 -84 -118 -215.5t-22.5 -261t47.5 -215.5q28 -65 60.5 -108t64.5 -66t61 -36t56 -24z" />
    <glyph glyph-name="partialdiff" unicode="&#x2202;" horiz-adv-x="1012" 
d="M213 1366l-80 102q76 34 177 52t194 -4q102 -24 188.5 -89t155.5 -186q42 -73 64 -164t28 -160.5t6 -111.5q0 -47 -10 -143t-34.5 -205.5t-61.5 -188.5q-48 -102 -91.5 -160t-121.5 -102q-102 -56 -208.5 -48.5t-191.5 65.5q-45 31 -80 70.5t-60.5 96.5t-31.5 129
q-9 111 27 204t86 155q58 71 128 109.5t163 35.5q88 -3 147 -31t160 -108q18 99 22 238q3 65 -19.5 168.5t-45.5 156.5q-24 59 -84.5 117.5t-144.5 65.5q-56 5 -89.5 3t-56.5 -9t-64 -26t-71 -32zM750 612q-59 67 -101 99.5t-121 31.5q-117 -3 -196 -110
q-41 -58 -62.5 -110.5t-31 -107t-9.5 -112.5q0 -74 17.5 -144.5t77.5 -111.5q44 -28 83.5 -29t86.5 19q103 45 165 190q36 88 57.5 186.5t33.5 198.5z" />
    <glyph glyph-name="Delta" unicode="&#x2206;" horiz-adv-x="1253" 
d="M668 1409l577 -1409h-1233zM594 1059l-447 -959h844z" />
    <glyph glyph-name="product" unicode="&#x220f;" horiz-adv-x="1686" 
d="M1446 1288v-1282q0 -69 23.5 -105t67 -48.5t108.5 -12.5v-47h-627v47q100 0 148 33t48 133v1419h-733v-1419q0 -69 23.5 -105t67 -48.5t108.5 -12.5v-47h-629v47q102 0 150.5 33t48.5 133v1282q0 203 -195 203v47h1583v-47q-192 0 -192 -203z" />
    <glyph glyph-name="summation" unicode="&#x2211;" horiz-adv-x="1460" 
d="M1264 1526l12 -326h-41q-32 102 -50.5 139t-79 66t-183.5 29h-539l559 -734l-602 -694h760q83 0 128 19.5t77 66t71 146.5h47q-45 -185 -56 -245t-32 -214q-39 7 -80 14.5t-77 7.5h-1031q-14 0 -36.5 -1.5l-45 -3t-36.5 -1.5l714 815l-710 930q32 -2 105 -8t108 -6h1018z
" />
    <glyph glyph-name="fraction" unicode="&#x2215;" horiz-adv-x="342" 
d="M718 1384l-963 -1443h-132l963 1443h132z" />
    <glyph glyph-name="periodcentered" unicode="&#x2219;" horiz-adv-x="831" 
d="M414 862q70 0 119 -46.5t49 -117.5q0 -69 -48 -116t-116 -47t-116 48t-48 115q0 66 47 115t113 49z" />
    <glyph glyph-name="radical" unicode="&#x221a;" horiz-adv-x="1124" 
d="M53 854l-33 68l299 147l404 -825l260 1634l72 -10l-307 -1946l-498 1028z" />
    <glyph glyph-name="infinity" unicode="&#x221e;" horiz-adv-x="1460" 
d="M731 608q75 67 110.5 97t72 53t81.5 43q72 32 143 27.5t131 -41t97 -93.5t43 -123q8 -78 -29.5 -154.5t-110 -123t-161.5 -37.5q-70 7 -134 34.5t-109 61t-87.5 76t-46.5 45.5q-24 -24 -56.5 -56t-76.5 -65.5t-108 -61t-136 -34.5q-89 -9 -161.5 37.5t-110 123
t-29.5 154.5q7 67 44 124t97 93t131 40.5t142 -27.5q45 -20 81.5 -43t72 -53t110.5 -97zM664 541q-88 75 -141.5 112t-102.5 54q-61 22 -110.5 12.5t-84.5 -40.5t-52 -71.5t-17 -77.5q1 -56 37 -101.5t91 -64.5t109 -6q81 19 124 50.5t147 132.5zM799 541q68 -67 105 -99.5
t73 -51.5t92 -32q55 -13 110 6t91 64.5t37 101.5q2 49 -29.5 102.5t-92 78t-143.5 -3.5q-50 -18 -103 -55.5t-140 -110.5z" />
    <glyph glyph-name="integral" unicode="&#x222b;" horiz-adv-x="561" 
d="M389 999l-2 -442q-2 -364 -70 -600q-21 -76 -59 -125q-17 -22 -75.5 -42t-104.5 1q-22 11 -41.5 36t-26.5 44q-12 35 0 65t49 48q34 17 60.5 5t56.5 -46q29 -30 48.5 -4t27.5 82.5t6 130.5q-2 76 -4 141t-4 119.5t-3 163t-1 219.5v295q0 90 2 192t7.5 181.5t16 139.5
t27.5 121q10 34 37.5 75.5t54.5 58.5q26 16 56.5 17.5t59.5 -8.5t44 -20q27 -17 40.5 -60t-13.5 -77q-15 -18 -43 -29.5t-56 -8.5t-47 24q-22 22 -40.5 24t-29 -11.5t-12.5 -33.5q-1 -26 2 -62.5t14 -173t17 -243t6 -197.5z" />
    <glyph glyph-name="approxequal" unicode="&#x2248;" horiz-adv-x="1124" 
d="M1004 807l75 -49q-58 -97 -163.5 -138t-200.5 -14l-307 88q-66 19 -118 11.5t-86.5 -30t-54.5 -48.5t-32 -41l-88 55q79 105 182.5 142t216.5 5l309 -86q68 -20 162 19q66 28 105 86zM1004 498l75 -49q-58 -99 -163.5 -139t-200.5 -13l-307 88q-66 19 -118 11.5
t-86.5 -30t-56 -50.5t-30.5 -40l-88 56q79 105 182.5 142t216.5 5l309 -86q68 -20 162 19q66 28 105 86z" />
    <glyph glyph-name="notequal" unicode="&#x2260;" horiz-adv-x="1124" 
d="M823 1124l101 -57l-156 -279h338v-112h-399l-160 -285h559v-112h-621l-184 -330l-100 57l151 273h-321v112h385l157 285h-542v112h606z" />
    <glyph glyph-name="lessequal" unicode="&#x2264;" horiz-adv-x="1124" 
d="M59 0v113h1018v-113h-1018zM59 711v127l1018 471v-127l-887 -408l887 -407v-127z" />
    <glyph glyph-name="greaterequal" unicode="&#x2265;" horiz-adv-x="1124" 
d="M1077 113v-113h-1018v113h1018zM1077 838v-127l-1018 -471v127l887 407l-887 408v127z" />
    <glyph glyph-name="lozenge" unicode="&#x25ca;" horiz-adv-x="1012" 
d="M557 0h-123l-397 772l397 754h123l397 -754zM831 772l-335 643l-336 -643l336 -661z" />
    <glyph glyph-name="fi" unicode="&#xf001;" horiz-adv-x="2773" 
d="M662 1360v-606h88q139 0 217 91t112 294h35v-801h-37q-16 104 -39 165t-63 109q-85 105 -244 105h-69v-424q0 -129 62.5 -191.5t190.5 -62.5h89v-39h-926v39h35q129 0 191.5 62.5t62.5 191.5v813q0 130 -62 192t-192 62h-35v37h1528v-604h-33q-15 78 -33 143t-35 100
q-50 111 -121.5 182.5t-169 106.5t-221.5 35h-331zM1803 39h39q129 0 191.5 62.5t62.5 191.5v106v90v129v519q-8 66 -24.5 105t-49.5 65q-60 53 -180 53h-39v37h880v-37h-39q-129 0 -191 -62t-62 -192v-813q0 -129 62.5 -191.5t190.5 -62.5h39v-39h-880v39z" />
    <glyph glyph-name="fl" unicode="&#xf002;" horiz-adv-x="3372" 
d="M662 1360v-606h88q139 0 217 91t112 294h35v-801h-37q-16 104 -39 165t-63 109q-85 105 -244 105h-69v-424q0 -129 62.5 -191.5t190.5 -62.5h89v-39h-926v39h35q129 0 191.5 62.5t62.5 191.5v813q0 130 -62 192t-192 62h-35v37h1528v-604h-33q-15 78 -33 143t-35 100
q-50 111 -121.5 182.5t-169 106.5t-221.5 35h-331zM1749 1397h953v-37h-101q-129 0 -191 -62t-62 -192v-1069h362q107 0 202 47.5t165 132.5q42 53 74 105t61 126t57 170h37v-618h-1557l-2 37h52q254 0 254 256v813q0 254 -254 254h-50v37z" />
    </font>
</defs>
</svg>
